<mxfile host="app.diagrams.net" agent="Mozilla/5.0 (Windows NT 10.0; Win64; x64) AppleWebKit/537.36 (KHTML, like Gecko) Chrome/141.0.0.0 Safari/537.36" version="28.2.5">
  <diagram name="Page-1" id="46-Ij4QnFHWYGuMfkN0l">
    <mxGraphModel dx="786" dy="451" grid="1" gridSize="10" guides="1" tooltips="1" connect="1" arrows="1" fold="1" page="1" pageScale="1" pageWidth="850" pageHeight="1100" math="0" shadow="0">
      <root>
        <mxCell id="0" />
        <mxCell id="1" parent="0" />
        <mxCell id="-fiA0x3XEAqKGvVLDNLU-4" style="edgeStyle=orthogonalEdgeStyle;rounded=0;orthogonalLoop=1;jettySize=auto;html=1;entryX=0.5;entryY=0;entryDx=0;entryDy=0;" parent="1" source="-fiA0x3XEAqKGvVLDNLU-2" target="-fiA0x3XEAqKGvVLDNLU-3" edge="1">
          <mxGeometry relative="1" as="geometry" />
        </mxCell>
        <mxCell id="-fiA0x3XEAqKGvVLDNLU-2" value="start" style="strokeWidth=2;html=1;shape=mxgraph.flowchart.start_1;whiteSpace=wrap;" parent="1" vertex="1">
          <mxGeometry x="220" y="30" width="190" height="60" as="geometry" />
        </mxCell>
        <mxCell id="-fiA0x3XEAqKGvVLDNLU-7" style="edgeStyle=orthogonalEdgeStyle;rounded=0;orthogonalLoop=1;jettySize=auto;html=1;entryX=0.5;entryY=0;entryDx=0;entryDy=0;" parent="1" source="-fiA0x3XEAqKGvVLDNLU-3" target="-fiA0x3XEAqKGvVLDNLU-5" edge="1">
          <mxGeometry relative="1" as="geometry" />
        </mxCell>
        <mxCell id="-fiA0x3XEAqKGvVLDNLU-3" value="import file ที่ต้องการ train" style="shape=manualInput;whiteSpace=wrap;html=1;" parent="1" vertex="1">
          <mxGeometry x="235" y="130" width="160" height="80" as="geometry" />
        </mxCell>
        <mxCell id="-fiA0x3XEAqKGvVLDNLU-5" value="อ่าน column ว่ามีอะไรบ้าง" style="rounded=1;whiteSpace=wrap;html=1;absoluteArcSize=1;arcSize=14;strokeWidth=2;" parent="1" vertex="1">
          <mxGeometry x="240" y="250" width="150" height="80" as="geometry" />
        </mxCell>
        <mxCell id="-fiA0x3XEAqKGvVLDNLU-6" value="list column ให้ user เลือก&lt;div&gt;-row(0 or 1)(choies)&lt;/div&gt;&lt;div&gt;-features(1 or many)&lt;/div&gt;&lt;div&gt;-label(1)&lt;/div&gt;" style="strokeWidth=2;html=1;shape=mxgraph.flowchart.display;whiteSpace=wrap;" parent="1" vertex="1">
          <mxGeometry x="225" y="360" width="180" height="100" as="geometry" />
        </mxCell>
        <mxCell id="-fiA0x3XEAqKGvVLDNLU-8" style="edgeStyle=orthogonalEdgeStyle;rounded=0;orthogonalLoop=1;jettySize=auto;html=1;entryX=0.5;entryY=0;entryDx=0;entryDy=0;entryPerimeter=0;" parent="1" source="-fiA0x3XEAqKGvVLDNLU-5" target="-fiA0x3XEAqKGvVLDNLU-6" edge="1">
          <mxGeometry relative="1" as="geometry" />
        </mxCell>
        <mxCell id="-fiA0x3XEAqKGvVLDNLU-12" style="edgeStyle=orthogonalEdgeStyle;rounded=0;orthogonalLoop=1;jettySize=auto;html=1;entryX=0.5;entryY=0;entryDx=0;entryDy=0;" parent="1" source="-fiA0x3XEAqKGvVLDNLU-9" target="-fiA0x3XEAqKGvVLDNLU-11" edge="1">
          <mxGeometry relative="1" as="geometry" />
        </mxCell>
        <mxCell id="-fiA0x3XEAqKGvVLDNLU-9" value="user เลือก category ให้แต่ละ column&amp;nbsp;" style="html=1;strokeWidth=2;shape=manualInput;whiteSpace=wrap;rounded=1;size=26;arcSize=11;" parent="1" vertex="1">
          <mxGeometry x="232.5" y="480" width="165" height="80" as="geometry" />
        </mxCell>
        <mxCell id="-fiA0x3XEAqKGvVLDNLU-10" style="edgeStyle=orthogonalEdgeStyle;rounded=0;orthogonalLoop=1;jettySize=auto;html=1;entryX=0.5;entryY=0;entryDx=0;entryDy=0;" parent="1" source="-fiA0x3XEAqKGvVLDNLU-6" target="-fiA0x3XEAqKGvVLDNLU-9" edge="1">
          <mxGeometry relative="1" as="geometry">
            <mxPoint x="390" y="510" as="targetPoint" />
          </mxGeometry>
        </mxCell>
        <mxCell id="-fiA0x3XEAqKGvVLDNLU-19" style="edgeStyle=orthogonalEdgeStyle;rounded=0;orthogonalLoop=1;jettySize=auto;html=1;entryX=0.5;entryY=0;entryDx=0;entryDy=0;" parent="1" source="-fiA0x3XEAqKGvVLDNLU-11" target="-fiA0x3XEAqKGvVLDNLU-27" edge="1">
          <mxGeometry relative="1" as="geometry" />
        </mxCell>
        <mxCell id="-fiA0x3XEAqKGvVLDNLU-11" value="ใส่เป็น array 1,2 มิติ" style="rounded=1;whiteSpace=wrap;html=1;absoluteArcSize=1;arcSize=14;strokeWidth=2;" parent="1" vertex="1">
          <mxGeometry x="265" y="580" width="100" height="70" as="geometry" />
        </mxCell>
        <mxCell id="-fiA0x3XEAqKGvVLDNLU-13" value="random weight, bias เก็บใส่ array 2 มิติ" style="rounded=1;whiteSpace=wrap;html=1;absoluteArcSize=1;arcSize=14;strokeWidth=2;" parent="1" vertex="1">
          <mxGeometry x="265" y="740" width="100" height="60" as="geometry" />
        </mxCell>
        <mxCell id="-fiA0x3XEAqKGvVLDNLU-24" style="edgeStyle=orthogonalEdgeStyle;rounded=0;orthogonalLoop=1;jettySize=auto;html=1;" parent="1" source="-fiA0x3XEAqKGvVLDNLU-14" target="-fiA0x3XEAqKGvVLDNLU-15" edge="1">
          <mxGeometry relative="1" as="geometry" />
        </mxCell>
        <mxCell id="-fiA0x3XEAqKGvVLDNLU-14" value="forward propagation" style="rounded=1;whiteSpace=wrap;html=1;absoluteArcSize=1;arcSize=14;strokeWidth=2;" parent="1" vertex="1">
          <mxGeometry x="425" y="850" width="100" height="60" as="geometry" />
        </mxCell>
        <mxCell id="-fiA0x3XEAqKGvVLDNLU-25" style="edgeStyle=orthogonalEdgeStyle;rounded=0;orthogonalLoop=1;jettySize=auto;html=1;" parent="1" source="-fiA0x3XEAqKGvVLDNLU-15" target="-fiA0x3XEAqKGvVLDNLU-17" edge="1">
          <mxGeometry relative="1" as="geometry" />
        </mxCell>
        <mxCell id="-fiA0x3XEAqKGvVLDNLU-15" value="back propagation" style="rounded=1;whiteSpace=wrap;html=1;absoluteArcSize=1;arcSize=14;strokeWidth=2;" parent="1" vertex="1">
          <mxGeometry x="570" y="850" width="100" height="60" as="geometry" />
        </mxCell>
        <mxCell id="-fiA0x3XEAqKGvVLDNLU-23" style="edgeStyle=orthogonalEdgeStyle;rounded=0;orthogonalLoop=1;jettySize=auto;html=1;" parent="1" source="-fiA0x3XEAqKGvVLDNLU-16" target="-fiA0x3XEAqKGvVLDNLU-14" edge="1">
          <mxGeometry relative="1" as="geometry" />
        </mxCell>
        <mxCell id="-fiA0x3XEAqKGvVLDNLU-29" style="edgeStyle=orthogonalEdgeStyle;rounded=0;orthogonalLoop=1;jettySize=auto;html=1;" parent="1" source="-fiA0x3XEAqKGvVLDNLU-16" target="-fiA0x3XEAqKGvVLDNLU-30" edge="1">
          <mxGeometry relative="1" as="geometry">
            <mxPoint x="315" y="1000" as="targetPoint" />
          </mxGeometry>
        </mxCell>
        <mxCell id="-fiA0x3XEAqKGvVLDNLU-16" value="loop กับ train data" style="strokeWidth=2;html=1;shape=mxgraph.flowchart.decision;whiteSpace=wrap;" parent="1" vertex="1">
          <mxGeometry x="240" y="860" width="150" height="100" as="geometry" />
        </mxCell>
        <mxCell id="-fiA0x3XEAqKGvVLDNLU-17" value="ปรับ weight bias" style="rounded=1;whiteSpace=wrap;html=1;absoluteArcSize=1;arcSize=14;strokeWidth=2;" parent="1" vertex="1">
          <mxGeometry x="700" y="850" width="100" height="60" as="geometry" />
        </mxCell>
        <mxCell id="-fiA0x3XEAqKGvVLDNLU-22" style="edgeStyle=orthogonalEdgeStyle;rounded=0;orthogonalLoop=1;jettySize=auto;html=1;" parent="1" source="-fiA0x3XEAqKGvVLDNLU-18" target="-fiA0x3XEAqKGvVLDNLU-16" edge="1">
          <mxGeometry relative="1" as="geometry" />
        </mxCell>
        <mxCell id="-fiA0x3XEAqKGvVLDNLU-18" value="" style="verticalLabelPosition=bottom;verticalAlign=top;html=1;shape=mxgraph.flowchart.on-page_reference;" parent="1" vertex="1">
          <mxGeometry x="305" y="820" width="20" height="20" as="geometry" />
        </mxCell>
        <mxCell id="-fiA0x3XEAqKGvVLDNLU-21" style="edgeStyle=orthogonalEdgeStyle;rounded=0;orthogonalLoop=1;jettySize=auto;html=1;entryX=0.5;entryY=0;entryDx=0;entryDy=0;entryPerimeter=0;" parent="1" source="-fiA0x3XEAqKGvVLDNLU-13" target="-fiA0x3XEAqKGvVLDNLU-18" edge="1">
          <mxGeometry relative="1" as="geometry" />
        </mxCell>
        <mxCell id="-fiA0x3XEAqKGvVLDNLU-26" style="edgeStyle=orthogonalEdgeStyle;rounded=0;orthogonalLoop=1;jettySize=auto;html=1;entryX=1;entryY=0.5;entryDx=0;entryDy=0;entryPerimeter=0;" parent="1" source="-fiA0x3XEAqKGvVLDNLU-17" target="-fiA0x3XEAqKGvVLDNLU-18" edge="1">
          <mxGeometry relative="1" as="geometry">
            <Array as="points">
              <mxPoint x="750" y="790" />
              <mxPoint x="513" y="790" />
              <mxPoint x="513" y="830" />
            </Array>
          </mxGeometry>
        </mxCell>
        <mxCell id="-fiA0x3XEAqKGvVLDNLU-28" style="edgeStyle=orthogonalEdgeStyle;rounded=0;orthogonalLoop=1;jettySize=auto;html=1;" parent="1" source="-fiA0x3XEAqKGvVLDNLU-27" target="-fiA0x3XEAqKGvVLDNLU-13" edge="1">
          <mxGeometry relative="1" as="geometry">
            <Array as="points">
              <mxPoint x="540" y="720" />
              <mxPoint x="315" y="720" />
            </Array>
            <mxPoint x="580" y="710" as="sourcePoint" />
          </mxGeometry>
        </mxCell>
        <mxCell id="-fiA0x3XEAqKGvVLDNLU-27" value="train test split" style="rounded=1;whiteSpace=wrap;html=1;absoluteArcSize=1;arcSize=14;strokeWidth=2;" parent="1" vertex="1">
          <mxGeometry x="490" y="630" width="100" height="70" as="geometry" />
        </mxCell>
        <mxCell id="-fiA0x3XEAqKGvVLDNLU-32" style="edgeStyle=orthogonalEdgeStyle;rounded=0;orthogonalLoop=1;jettySize=auto;html=1;" parent="1" source="-fiA0x3XEAqKGvVLDNLU-30" target="-fiA0x3XEAqKGvVLDNLU-31" edge="1">
          <mxGeometry relative="1" as="geometry" />
        </mxCell>
        <mxCell id="-fiA0x3XEAqKGvVLDNLU-30" value="forward propagation กับ test data" style="rounded=1;whiteSpace=wrap;html=1;absoluteArcSize=1;arcSize=14;strokeWidth=2;" parent="1" vertex="1">
          <mxGeometry x="265" y="990" width="100" height="60" as="geometry" />
        </mxCell>
        <mxCell id="-fiA0x3XEAqKGvVLDNLU-31" value="อัตราส่วนที่เดาถูก" style="strokeWidth=2;html=1;shape=mxgraph.flowchart.display;whiteSpace=wrap;" parent="1" vertex="1">
          <mxGeometry x="440" y="990" width="130" height="60" as="geometry" />
        </mxCell>
        <mxCell id="RW19oWGCIhu28mRPmWR4-33" value="forward propagation" style="strokeWidth=2;html=1;shape=mxgraph.flowchart.start_1;whiteSpace=wrap;" vertex="1" parent="1">
          <mxGeometry x="90" y="1130" width="100" height="60" as="geometry" />
        </mxCell>
        <mxCell id="RW19oWGCIhu28mRPmWR4-38" value="" style="shape=image;verticalLabelPosition=bottom;labelBackgroundColor=default;verticalAlign=top;aspect=fixed;imageAspect=0;image=data:image/png,iVBORw0KGgoAAAANSUhEUgAAAekAAADpCAYAAAAAuc8jAAAAAXNSR0IArs4c6QAAAARnQU1BAACxjwv8YQUAAAAJcEhZcwAADsMAAA7DAcdvqGQAAOCFSURBVHhe7P13kCXXdeeJfzLz+ap6r7w37ao92sERRgBIgqKoMZAoaUdmftrZWO2sdmI0O7+N3xj9hvsbbmzE/rEudleKUUxIGquhDIOiRBLiiABBeNdAd6NtdXdVl/dV71U97zLz98e7J3ErUQ10g2iwG5XfiOx+lS9f5s1rzveec889xyiVSi4BAgT4zMNxHCqVCpZlEQ6Hvb8dxyEej1Ov16nX68TjcQzDwHVdHMchn89TqVRob2/Hsizq9Tr5fJ5QKEQikcCyLAzD8J4j9zEMA8uyCIVCW8qBKovrupimueW3AQIE2AojIOkAAXYGXNf1yFOI0XEcisUi8/PzbG5uUi6XsSyL3t5eenp6ME2TsbExZmdnOXXqFF1dXcRisS1kL4QupOu6LrZte+cBQqGQ93e1WsU0TSzLwjRNXykDBAigIxghAQLsEBiGQTgc9ohUzpXLZd555x3Onj3LtWvXOHfuHBcvXmR6eppiscjS0hLj4+NkMhlqtRqmaRKPxwmHw969HcfBtm3vnqJBu65LrVbzNGfHcajX6ziOExB0gAC3gECTDhBgB0HIWZDP5xkfH+cP//APOXr0KE888QSzs7OMjY1RKBT41V/9VSKRCIVCgd7eXmKxmKeF27aN4zge8evaueu6nmm8Xq9vMXnLtbpGHyBAgO0RTGUDBNhhsG2bWq0GSusFqFQqhEIh2traaGtrwzAMCoUCpmmysLDA2bNnSafTrKysMDY2xssvv8wPf/hDXnnlFS5dusTq6irZbJbTp0/zyiuv8Oqrr/LSSy8xMzPjae6GYXjas2jV/klDgAABtiIg6QABdhjq9TrVahXbtgmFQsRiMcLhMOVymbW1NQqFAoZhkEgkCIVCXL16leeee46FhQXW19dZWlri6tWrXLp0iffee4/Tp08zMzNDJpPh1Vdf5a233mJsbIyxsTHS6fQHHMscxwkIOkCAW0RA0gEC7CDoJmZZX47FYti2zcWLF/nud7/LCy+8wPz8PJFIhFqtRqVSoVqt4jgOXV1dnDp1ip//+Z/ny1/+Mvv37+fatWtMTU2Rz+eZmpqiqamJz3/+8zzzzDMcPnzYW58Wb3Ih54CkAwT4aAQkHSDADoF4XZumSSQS8czQsm7c1dXFiRMn+NznPsfg4CDVapXNzU0cx6GlpYVEIkE+n+fGjRtcuXKFyclJlpeXPW/tlpYWDh06hOu6nD17luvXr7O0tEQul/PIORQKeV7dfg07QIAAH0RA0gEC7CAISYfDYc/7ulqtUq/XGR4e5qmnnuLpp59meHiYYrFILpfDdV0SiQTRaJSFhQXefPNNLl26xOTkJGtra979kskk999/P83NzVy5coVXX32Va9euUS6XqVaroG3FMk0z8O4OEOAWEIySAAF2EIQYdaI0tH3Oom2XSiVKpZLnoV0oFCiVSly7do1Lly5x/PhxHn30Ufbt20etViOXy1GtVkmlUjz11FP83M/9HIuLi6yvr9PU1EQikcA0TarVKrVaDdu2A3N3gAC3gICkAwTYIdCJWQjZMAyi0Sjt7e2sr6/z2muv8fLLL5PL5di9ezft7e20trbS0tKyxft7fHycyclJCoWC932tVmNmZoaxsTHm5ua83+rmbTkCLTpAgFtDMFICBNhBEM0Z5WVtmibNzc0cOHCAeDzO1NQUExMTJBIJjh8/TldXF4ODg4yOjtLc3MzevXs5duwY6XSa1dVVLMtidHSUvr4+TNMkm80yPz/P8vIyhw8fZnh42HumbmbXyxEgQICbIwhmEiDADoWYm23bZnNzE1cL6yke2dFo1FtTbmpqwrZtz2RtqMhiAJFIhEgkQqlU8iKPWZZFJBLZEgAlQIAAt4eApAMECHBTOI7jP/WhCMzYAQJ8sghGVIAAAQIECHCXIiDpAAECBAgQ4C5FYO4OECDATXG726SCtecAAT5ZBJp0gAABAgQIcJciIOkAAQIECBDgLkVg7g4QIECAAAHuUgSadIAAAQIECHCXIiDpAAECBAgQ4C5FQNIBAgQIECDAXYqApAME2IHQs17dCvzX+v8WOI6Du02UMtd1YZvrAwQI8OEISDpAgB0Gx3GwbZtarXbTsJ86Cbuui+M4DQLW0ln6f+s4DpVKharvvt71PpL3/z5AgAAfRODdHSDADoKffCWvczgc9uJu+zVkIWd/iks9k5VO3vp39Xod27YJh8Me0YdCIQzD8I4AAQLcHAFJBwiwg6Brr6ZpehmtIpEIlmVhGIZH0o7jUK/XqdVqHplXKhVqtRpNTU2EQiEv7aTkifajWq1i2zbxeJx6vU69Xt/yrAABAnw4ApIOEGAHwXVd6vU6juMQiURAkXGtVsM0TU/LrdfrlMtlCoUCm5ubbG5ukslkWF9fp1Qq0dPTQ2dnJ8lkkkQiQVtbGy0tLVSrVS/NpWjgolnL8wMNOkCAW0dA0gEC7BDo5m1UHmkhVDFTu65LoVBgcnKSmZkZIpEI4XDY03yr1Sr1et3LFW0YBtlsllgsRmdnJwMDAySTSWKxmKe1u67r5Z8OTN0BAtweApIOEGCHQMjSNE1M06RUKmFZFuFw2CPnXC5HPp/n+vXrzMzM0NXVRVtbG21tbTQ3NxONRj1irtVqFItFZmZmcF2XVCrFyMgInZ2dNDc309TUhGmaOI5DqVTySFpM5AFJBwjw0QhIOkCAHQTRog3DwHEcqtWqt2588eJFxsbGaG9vZ3h4mMHBQRKJhGeqdhzHI3jbtr3zm5ubOI5DsVhkbGwMwzDo6enh0KFDtLS0eM+Ste1YLOb9NkCAAB+OgKQDBNhBcLXtVKFQiFKpRCaTYXJyEtd1icfjxGIx2traSKVSJBIJUKZxnWjj8bhnHhezdqVSYWZmhmw2S71ep7293dPELcvCtm3q9TqmaRIOhwmFQr7SBQgQwI+ApAME2EFw1B5px3GwLIv19XXm5uaYmppidHSUI0eOeF7drusSiUSoVCoUi0Xy+Ty5XA6AvXv3EolEcNX2LfmN4zisrKywtLTE5uYm3d3dDA4OeqZvIepoNEo0GvUXL0CAAD4EJB0gwA6BOI7JWnClUuHs2bNMTExw5MgRBgYGaG1txXVdb0tVrVZjfn6esbEx3n33XdLpNB0dHfz6r/86/f39niNYPp+nXC6TSqUolUqsrKwwMTFBJBKhu7uboaEhEokEhmFQq9W8tfAAAQJ8OIKFoQABdggMbStUsVhkYmKCWq3G4OAgvb29tLS0EAqFvMAmrusSCoVobW2lp6fH8+bWSVz+DofDngk8FovR1dXF3r17sW2b8fFxSqWSt/4tvxNtPUCAADdHQNIBAuwgiMk5n88zOTmJYRiMjo7S1tZGLBbzvK+FfE3TpKWlhY6ODmzbpqmpif7+fs/LG6WhRyIRT1O2LIvm5mZPe97Y2GB9fZ1CoeBt+5L7BwgQ4MMRkHSAADsM1WqVbDbL0tISpmnS19dHLBbD8kUMc1Woz2q1ytraGi+99BLlcpnjx48TiUQ8hzHZTiUE7aqAKeFwmKGhIfbs2cPExAQrKyueti37s4XoAwQIsD0Ckg4QYIchm82STqfp6uqitbXVI1khZSFf0Xjz+TwrKysYhkF3dze7d+/2NGkh8Xq9DlpEMblnc3Mzra2tlEolyuWyd2+U+T1AgAAfjoCkAwTYQXBdl42NDdbW1ujv76e9vd0zOwtB27YNGknL9ULqlUqF69evc+XKFaampsjlch8gadHKo9EoLS0t2LbdyJBVrX5gMhAgQICbIyDpAAF2CIQYNzc3WV9fp6Ojg2Qy+YFr/H9vbGyQyWQ4ePAg1WqVv/zLv+R/+p/+J/7n//l/5j/8h//A/Pz8FvJFC5YiJG0YhreVSyYCgeNYgAAfjYCkAwTYQXBdl1KpRD6fJxQKEYlEtqwp61qwaNSzs7O89dZb3Lhxg0KhQDKZ5Pjx4ziOw2uvvcYbb7zB7OwsthYXHC3jVigUoqmpCdu2yWaz3n0DBAjw0QhIOkCAHQRZQy6Xy5gqxaS+NizryYAXm3t6eporV65QqVRIJpOMjo7ypS99iV27dpFOp7l48SLz8/M4juMRvQ7xEAc80/h21wUIEOCDCEg6QIAdBEMFE6lUKoRCIU9r9pudXZU7emZmhpmZGWq1Gl/5ylf48pe/zLFjxzh8+DAPPvggx48fJ5fLkcvlPkC6oqFbluWFBs3n89gq7nfg3R0gwEcjIOkAAXYI/FqyQNaShahlrdhxHBYWFkilUnzuc59j165dNDc3YxgG8Xjci72dSCSIRqMeKevPctV2LENLUynPCgg6QICPRkDSAQLsIAiRClnrBC2HrC3XajUmJydpamrioYceoru729sfLZp2vV6nr6/PCycqRI/mPGbbtpdPOh6Pe88NECDARyMg6QABdhhisRgtLS1bSFX+F03XcRxyuRxnz55lc3OTwcFBurq6SCaThMNhisUixWKRcDjMsWPH6O/v9xJs+Inatm0ymQwAra2tXnjRYAtWgAAfjYCkAwTYYWhubiaZTLK6usrm5uYWs7OYpV3XJZ/PMzs7i2EYDA0NEQ6HsW2bYrHIlStX2NjYoL29nV27dtHR0eGZv3WSFo09nU7jOA5tbW2Ew+EtGnuAAAFujoCkAwTYQXAch2QySWdnJysrK2xsbIAiZ52sq9UquVyOtbU1DMOgs7MTy7LIZrNMT09z/fp1LMviwIEDXnIO3VNctGRH5aAulUpYluWlrPSbxgMECLA9ApIO8IlAhK7/cBxny3Er0H8b4JODq9aZ29raGBwcJJvNks1mcRwH0zQxTRPHcbzc0dlslkKhQL1e97ZrTU1N8frrr7O2tsa+ffv4yle+Qltbm0fOEru7Vqvhui6FQoFMJkMsFiORSHjpKU3TJBwOB85jAQJ8BIJ80gF+bLg38dTdTlOSa2/1+u2uC/DxIBOfYrHIysoKb731Fnv27OH48eNYluWZpiWE59LSEj/84Q+9jFb1ep1SqYTjOHR2dnopLsU8rrefkP6NGzeYmJjAtm327dvH6OioN/m6WT8IECDA+wg06QA/FsRRyE+wck7O62ZQOeR7/98ivAMB/snCUF7d8XicVCpFKpWiXq+TTqepVCpbYnbH43GGhob4O3/n73Ds2DFyuRyrq6tEIhFGR0c5ceKEt07NNtYP13Upl8tkMhk2Njbo7u4mlUoF1pEAAW4TgSYd4GPDVWZNQwWsEE3MUdtuhKBFqzIMg2q1Cj4tSidnuU9A0J88hEQNw6Ber7O2tsbMzAz5fJ4TJ06QSqUwTZNisYihHMhCoRD5fJ5CoUAikSASiRCJRAiFQt7kShzGBPV6nWKxSCaTYXJyklwux6OPPup5lFuWtaW/BAgQ4OYISDrAx4Yu9LcjXSFp/TtdkzLUdh/5jWh6AUHfObgquIgELJmbm2Nubo5QKMTw8DCDg4PYtr1lwiTX62vIpnL+Qmtfx3GoVqtUKhU2Nze5dOkSzc3NDA4O0tfX5615i/Yt7R0gQICbIxghAT42dEGuE6sIX9GYhIx1LUp+p/8t16IRfYBPFtIWjuMQiURoa2ujs7OTjY0NFhYWWFlZAUXCYg0JhULEYrEtvxXTuN62sh96ZWWF1dVVqtUqra2tDA8PewQvfUVIPWjjAAE+HIEmHeATh2jF8tm2bU/gS9YlEewisP2/1wnC/32Ajw8hRdF6DWX6npmZ4caNGxSLRZ566imi0Si1Wo2mpiavDfTEGI7yCJfPlmVRLpe5ePEiCwsLuK7Lo48+SiqVwlCmc33CJgg06QABPhwBSQf4RKALXj+pisbkKk1a177kdzpZi+AnEOKfKFxl6jaVj4CYtV3XJZvNsrS0xOrqKqVSiaamJlpbW2lrayMejxOJRIhGo1haGst6vU6lUiGTybC8vEw6nfa07lQqxejoKLFYzGt/sZZ8WF8JECDAVgQkHeDHgi5w0YSubsoUAhby1T/7iRotvnSATxaucvQzVQYqfaLkOA6VSoX19XXOnTuHaZq0trYSi8UIh8OEw2HP8ctWWawk5WWxWGRxcZFsNsu+ffvo6+ujo6PDS8JhqNCghm8NOmjjAAE+GgFJB/jY0DUz0bDkfK1W85yTLMvyzJ06SejXyzqno7yFRdsL8MnCVUsM0nZisRBvbWmD5eVl5ubmWFpaYmNjg0qlQjgcJp/PUywWvQAmsiWru7ubtrY2UqmUt6QhJnFTW96QI2jfAAFuDQFJB/ixoGvGAIVCgY2NDVZWVkin0xQKBW/NMhQKEYlESKVSnsOSmFKFNERLE9NogE8Orut669D+SRWaxcM0TS/iWC6Xo1KpUK1WKZVKTE9Ps7GxwcmTJ4nH45imSWdnJy0tLcRisS0auk7C8lm+0ycHgUYdIMDNsaNJWoSTfBYhpZ/fToCIoNHJ6WbQBaAunMx7wKTrL7uU10/MlUqFUqlELpfzjrW1NbLZLMVi0buXZVkkEgmamppIJpOkUqkt/6PWOl3lMKZ7ewv0Mn3YuQAfhJi09UmQtK1MjvzarfTXWq1GOp3m0qVLrK2t8dM//dNecBIhWhkXehvKOb0t5RpHbccK2i1AgJtjx5K0CAohm0qlQkgFbxDBZNxkH6ejkgaIdvhhcNS6q6ntN0VpELJf9G6E6zNlCzG7ShuzLMsr//LyMhMTE1y4cAHLsujo6KCzs5PW1tYtka1KpRKGYZBOp1lYWGB6eppoNMrAwAAPPfQQTU1Nnie41K2//vX6lPJI2fzXBvggPs6ERtp8bW2NK1eusL6+ztNPP017e7t3zceZNLk3CScbIECA97HjSFoECCoykpC0zPhF2Pv/luvRNEs5hEy2EziOisqk31Mg997udz8puNpapUxY5B2lnLVajWq1SqFQYGZmhlwuh6OyK8ViMWKxGPF4nKamJqLRKGimVNu2KZVKXnKHQqFAsVikUqkwPDzM7t27icViWGoftS7wpd7lbylvQNJ3Fq5G0pcvXyadTnskvV2bBAgQ4JPDjpNqOrnqR71eZ2VlhYmJCfL5vGey04lV/ywEol/naI438p3+vakcpnQz490EeQc55JytBa6Qc4VCgaWlJebm5igUCrS2tnL48GGOHDnC7t276erq8tYp5d1lG08qlWJwcJDDhw8zOjpKZ2cn2WyW+fl5lpaWqFarOI7jrVFLeVzfEoOUN0CAAAE+q9hxJC3kKp7HQpYbGxu8+uqrfPOb32RqasozzQohGIbhbUWx1F5PU6Xbk79rtRqVSsUjl0qlQqVS8eJby7OE9O5GpxnRoKPRqEeA+nqio4JgrK6usrKyQk9PD8eOHePYsWPE43EMXxxvgEQigaU8u8VMHolECIfDdHZ2cvToUf723/7btLW18d5773kOZ8VicQtJ+2GrvboEWlyAAAE+o9hxJI1mOhWzbi6X44UXXuD555/nzJkzbGxs4GjbR9DWz3QtTteE5XM4HPZ+I845OmEZyiyrm7/1+/ykIeZ3OUy1Ji1aa6VSYXl5mVwuRyQSYWhoiM7OTm/bjU6W+rsKOUu9l8tlUHUk6/ODg4Ps3r2ba9eusbS05O3R1U3fUlf6Z71dAgQIEOCzhB1H0qKRCXEWCgWmp6d56aWXGB8fB0UcQi66Bnkzs6to5bqzk6E0St20LYep9pDK7/Ctlf+kIKSK5sGtE2StVqNYLLK8vEy9XvccxJqamjwSl7rR7ynn/HXhR2dnJ8PDw5RKJdbX17dMlvx1qCMg6AABAnxWsaNIWjRBW203CYfDzM/P88Ybb3D27FlaW1v56Z/+aXbt2kVTU9OW37rKRF6r1bZ4HxuGQbFYpF6vf8B87Sc4nZSr1SrFYnGLGddPPj8JGMq5S/bT6u9TLpfZ3NwknU6TSCQYGRkhEomAKnupVKJWq2l3e39NW3+3cDjs7bFFTZii0ahnZh8dHSWfz/Pmm29SKBQ+UA6BPqmQSUKAAAECfJawo0jaUIH+RTMLhUKMj4/z5ptv0tfXxxNPPMHnP/952traPBNvrVajXC5TqVQ8UnAch3K5TF1tURLCkfVn1xfIQZ7lui6VSsXbOyyZhXTcDUQtExjRWuW919bWuHHjBolEwgsZKZ7erusSjUYpl8vMzMxw4cIFxsfHWV9fp1gsMjc3x/nz55mZmSGbzWLbtleHAldZI/r6+mhubqZcLpPNZimXyx5R62RsbrOvN0CAAAE+S9hREs7QTK51lZj+xo0bjI+Pc/ToUR5++GH279/vbRvClxxCCNRQcaflO1mHlnNyjVwvZFKr1cjn82xsbFCr1YhGo1uuE/j//jQhEwzLsjzvdDm/vr7OwsICHR0dtLa2bqkHiUZ18eJFLly4wMLCAsvLyywvL1OtVllfX2dsbIwXX3yR8+fPs76+7nlxu74AGM3NzbS0tBCNRkmn0+TzedDM2no7yIQrQIAAAT6L2FEkjSJMx3G8Pb7z8/PYts3jjz/O/v37cdWe0LraQx2JREgkEsRiMc9UHg6HSSQSGIbhaZGWZXkey6bmQY7y4rZtm2KxyNraGvPz82Sz2S3l8hOz/+9PG7I0ICb6er3uhYns6emhpaUFx3G8Pc2rq6v88R//Mf/xP/5HXn75ZRKJBKZpsrq66jnoLSws8Du/8zt84xvf4MqVKwBElMZeqVQAvAlSKpWivb2dpaUlMpkMbLP2LNq1/neAAAECfJawY0hauWcBDqbZWBM+e/Yc6cwGfX399Pb20tTUIN4t26pUOr61tTWef/55fvjDH3LhwgWy2SyXL1/m29/+Nt/85je5fPmyp9WJZihr0rlcjpdffpm3336b2dlZMpkM7733Hi+88AK5XO79Mm5D1P5znwYkrKc4vsn7G4ZBT0+PF6PZMAxKpRI/+MEP+L3f+z2y2SwnT57kb/yNv0FHRwfT09O8/fbbFItFenp62LdvH47jsLq6ytLSUkNLV0QrdY6aILS0tNDe3s76+jqZTMZbRvATs65VByQdIECAzxo+AyTtghLUDQrWPtjqa8DGwaUGlDHdAsXCBmfPXaBYiTB64BhtbR3EIiEMw8UKWTiGQV3t0a1Wq2xsbHD9+nXeeecdXn/9dcbHx5mcnOTGjRtMTEyQTqc9wnBUUBPTNCmXy6ytrbGwsEAulyMUCpFIJKjX6ywvLzM7O0s6naZWq3mmX+/NNI9p+XwnD3EYu379Oi+//DLXr19ndXXVI23AW68XK8LExASvv/46p0+fpqenh4ceeohTp05RU7GeNzc3AWhtbaWvr49QKERdTXz0Z8uERhCPx0kmk2SzWfL5PI62jGBoZnYdHzahkTqUa35SE6AAAQIEuB3c4yQtBO2Iqiz/vU/UHyDpKnY1zfr6Mu9duEIk3sEjj32e1tY2DLPxI8exqdRqVGo1Qsoc6zgO3d3drK+v88ILL/Dcc8+Rz+c5fvw4Dz74IH19fZ7nt61FHVtaWmJ6eprR0VEeeughHnjgAY4dO8Zjjz3GiRMnOHPmDBcuXCCXy32AqIU0bRW0o1ar3dGjUqmwubnJ97//ff6X/+V/4Q/+4A949dVXWVpaYnNzk3q97u11dhyH9fV1vve97zE9Pc3evXt56qmn2LNnD+VymStXrmBZFqdOnfKIXda3E4kE7e3tHyBsNL+BaDRKJBLx3l+0bNGW9SUJPoJ0pf30dnF8W+ACBAgQ4G7EPR67WyNpQrhGQ3kOiRbdOI1tuVSoE6WIRZlSZo7X35nl//v1f8WB+77If/mrf5MHT+4l2eKCa1G1XepYmEDINKmWyxQKBdbX13n22Wd5++23+cIXvsB9993H0NAQoVCIpqYmmpqaPHO3kMK5c+e4ceMGn/vc5+ju7iYWi4HSthcXF/mTP/kTEokEw8PD1FWkMpQmKRAyE1K6U2ZdV3mzP/vsszz33HN0dHQwMDDA4OAg3d3djI6OcuTIEQ4fPkw0GuX69ev8y3/5LwmHwzz22GM888wzNDc3s7a2xuuvv05nZycHDx6ko6ODqakp3njjDb797W/zuc99jmeeeYZIJOJNTg4dOkQqlfK8ygHm5+f53d/9Xfbt28cXv/hF2traSCQShMNh6r481lJ3kUjEa4OamvQYyrveX3euzws/wPZwg9jdAQL8xLAjJVSDcNcol8tEIhGSyRSmaSk13MXWBLurvLeTySRDQ0Oe01QsFqO9vZ3BwUF6e3sJhUJsbm6SyWSoVCqe5lgqlSiXy17iCTEVC8Ho12WzWTY2NrxDklDIsbm5SS6X+8D5T/KQZBnyPgsLC8zMzLCxsYGtnOZEI63VaiwsLGAYBv39/Z52vbCwQKVS8daV0+k0Y2NjTExMcPToUU6cOEFXVxfr6+ucP3+e06dPs7bWaA9xthOBb9s2m5ubzM3NcePGjS1Od+KgJ+VhG298mTDp97OVJ3lA0AECBLjbsSM16RuXT/Psc+/xr/7gOzz9lf+Kf/QPfo2B7jiJWAWMEMWqjRGKErEsXMfBVMI9k8nw4osv8s477zAwMMBjjz3GAw88AMDU1BRTU1M4jsPu3bsZGRmhVCpx+fJlZmdnOXLkiLf/V/ZTZ7NZzp49S1dXF6Ojox6Ju8pBSky6+t7uO6mt1Ot1Njc3+cY3vsGf//mf09vby8mTJ7nvvvuIRqMkEglSqRRDQ0Mkk0mmpqb4zd/8TQYGBvjZn/1ZBgYGyOVyzM/Ps7q6ypEjR9i/fz/j4+OcO3eOTCbDV7/6VQ4dOkQ0GuWdd97h+eefZ3Z2lr//9/8++/bto6WlxYv1vbq6yp/+6Z8SCoXo6upicXGRzs5ORkdHOXjwIE1NTThq+1dIhRYVa4NMhnRUKhUvSIsk+wjw0Qg06QABfnKwvva1r33df/Leg9swChjqk6tOqdOu2ViTDlHDpM7s5FXOvDfB9RtLHD3xOD/12APEoxA262BYOC5ghrDrdZaXllhZXmZ1dZXV1VUqKu/0zMwMqIAkACsrKywtLVEqlUgmk7S3t2OaJrFYjEgkwsTEBCsrK2SzWVZXV5mammJ+fp7Ozk4GBgbo6OggGo0SVkk8Qiq3tZCJbO+yVKSzO3VEo1Gi0Si7du3iC1/4Ag8++CB79uyhvb2dusoJ3dfX55mV29vbGRgYIBKJYFkWyWSSvr4+Ojo6PHN2pVJhYGCAkydPcvDgQZqbm3GUs9jy8jLZbJannnqK7u5urxz1ep1MJsP4+DiDg4McO3bM+17yUReLRa9+xOyt75uWSY1+SP0ZKrJasM/61mCrLYSrq6uUSiX27NnjJVQRBPUYIMAnjx1o73PJ5fJkMmkSiSaSqRbiMbA006elPI0dlXxjcXGR6elpisUi3d3d7N+/n3A4TC6X8yJqifarh8Z0XZe2tjYGBwcxDINcLsfq6ipra2vkcjlc16Wnp4f29nZvLdZWTmK2bXuk8mkRiamipx05coSvfOUrPPXUU9x3333emnRdpfNE1VFLSwtf+cpXeOSRR+jt7aWtrY3+/n7279/P4cOH6enpIRKJ0NPTw3333cfDDz9MR0cHIWUZ6OjoIJlMEo/HicfjRFVo0JqKEV4ul2lubqa3t5fdu3dz5MgRRkZGaGpqolAoeO2ysLBANpv9gCOZH6aKpBZRyUC2uyZAgAAB7ibsKE3aooZJlcsXzvLumWvYNHHsxE9x8sQIYQtMow6GCWYIaJjxqpUKqysrbG5uMjo6ysjICO3t7VSrVTo7O+np6dkSRjSdTtPV1UVfXx+lUgmUtj0wMEBbWxvhcJhoNMru3bu57777aGtrI6LiX4uHtQRIkfVVFOm4KmiKqSKY3YnDMAyi0SjxeNybbJimSb1e58KFC4yNjXHfffeRSqUIhULEYjFSqRS9vb0MDQ3R2tpKJBIhEol4266kzkRDNlVe7VKpxJUrV5ifn+fo0aOe45isjxcKBcLhML29vbS3t3uaen9/P/39/WxubnLx4kUmJiYwDMPT3mWy4zd5Sx3K5Mf/fYCbI9CkAwT4yWBHadKuIsLs5gYbmxmaEolGZCwDTANwXVzlgOQqcmpvb2ffvn2eZtjU1EQqleLkyZMcO3aMoaEhz5EsEokQj8c9c2okEiEUCmFZFk1NTbS3t9Pf38/w8DAdHR2Ew2FqatsWyos7Go169xKN00+idxoyMRCzu6GCjXR2dtLX1+c5mAnCKgKbXB9WCTQSqn7lHoZyxhNytCwLR+1DF2I3TZPm5mY2NzeZmpoimUzS0tLiPUt+l0gk2LdvHw8//DBHjhyhVCrx2muv8eKLLzI9PU0oFAJfIhOpu3K5TE3l+A4QIECAuxk7jKQdKuUymY1N0ukNQuEIkWgEw4CGvJbkDS6uIoRYLEZPTw+7du2iubmZkFonFq9uiTFtqDVO8TIWYjOVWdUwDOLxOK2trXR0dBCPxz0vY/03smaqa8yGlpf5TkPKI2vGrtrKZKnEF7t27WJ5edkL3iJmedM0t7y/aMshFRJVzltq7bhSqbC+vk6tViMWi5HL5TzLQ12FIN3Y2CCZTHoZyUQTBohEInR3d3PgwAH27dtHKpWiUqmQTqeZn59ncnLSCyAjz5byyvvJvQIECBDgbsWdl/p3ERzXoVQus5HJkE6v47gOpmlgSC24Lo7rNAhanSqXy5im6XkSC7HWVRCOSqXiEVk+nyedTlMsFj3CNVTgDzEdi3Ysa8+iMdfrdarVqqdZC4n4iUTO3alDCEyOYrFIPp/HUNusRkZGuHHjBouLi6AFFXGVB7B4rtdVvG5XW2eX62q1GplMhgsXLlCr1ejt7eXy5cvMzMxQrVaZn5+nUCh4W7hkz7irJjviQCeTg5aWFo4ePcrTTz/NAw88wPr6Ot/61rd46aWXWF5epqmpCdM0vfJJWFMpT4AAAQLcrdhhJO1SVoFJ8vkC9VoN13Ex1Fp2g6S2pkKMRqOYak3WVM5ktVrNM03LenI+n/diTBcKBTY2NqiopBFiAnZU0gpXZXvyOzBtp0XL93KNsY3H8id1yDvLZ1TCCwnSoq8z12o1ZmZmcNU6uXwvkw65h6FIVc7ZyqO6tbWV++67jyeffJKf/umf5uGHH2ZgYIBKpcL4+DiGYbBv3z5iKp2nEDRqfVQmM/JccQjr6urixIkT/NRP/RQtLS1MTEzwox/9iLGxMQqFArFYzKtTaecAAQIEuFuxs0jacSiVipTKJaoqTSKiNbtbzalyPqKZrHVHIyFeWfuMRqO0trYyNDREKpXyNG4U8clv5RmmMgfrJOk3ccvxaUGeJ2VAvadMJizLIh6P09fXh2EYnjm5orKDySTD/w76xEMg27wOHz7MkSNH2LVrF67rMj8/T7FYJJlMMjw8vGUvs14f+qRFf2ZTUxMjIyMcO3aMkZERQqEQa2trLC4usrCwwOrqqjeBkvb4cczfrmYp0En/szgJ0JcK/Pg0+2mAADsJO4ykbQqFAlUloE1TE/reP2AahmfuRnPoMpRWKPty5bemaTIyMsITTzzBz/7sz3LixAna29u37N9FOViJZq5DCFuIzY+bnb9TsCyLsBaj21aObfL+XV1dhMNh0uk009PTrKysUCqV3p/0aBMOHUKodZXL21SWilAoRKFQ4OLFi7z77rv09vYyPDxMMpncMpHR7+3X2PUyC1kfOXKERx55hJMnT2LbNmNjY7zyyitcuXKFbDZLWG17q6u46NsRtf9vgUy2ZNmjUChQrVa9753PSGxwKb+rljOqKpa6v00CBAhwZ7CjSNp1G8LTcd5ff31fI9M1tQ8XOtsJJVPtwdVNu9tdt925uwl+ohKyEU3RsixaW1vZvXs3e/bsIZPJMDk5ydTUFCsrK1syVgl0QS97yuPxOKZpegFLLl68iG3bHDhwgL1799La2vqBstwKXKXZyrp4NBqlp6fH09hHRkaoVqtcvnyZ1157jeXlZW/5wlTLGX5yFe1RJ+WyCmFqKHN7PB4nHA57v5GJ193e3h8FQ7P+NDU1bdm9YKsEMHqd3257BQgQ4MOxo0gaXGzbwXUbJGLbNrZm8jbMhnYt+63l2IkQjVQmG0JUpgp4IpHSxLQvUdSmp6dZXFwkk8lQKBS8fd/VapVyuUy5XKZYLJLJZLhx4wZTU1MsLy+Ty+VIJpPs2bOH7u5uz1ns40BIxVVr/83NzZ5n+sjICKlUimq1ysrKCvPz8ywtLXkOf3UVO1y/hxxC1PohEJLXca8TtEDeU1/O0Ccu29VHgAABPhnsqGAmTr3IysIM7737JleuL9DVu48jxx/l6OF+LMCghouJaYVwMMF1P2D6/qzDVQ5aclgq6IcO+S4ajdLX14dlWayvrzMxMcHc3Byrq6ueNmoYBrVazSNo27ZZWlryNNlMJkNrayuDg4MMDQ3R0dHhLSV8HDO/q633i8bnqD3SYbWfu6WlxQucMjU15U0qZFlDJghCQpbaz+2oxCNiLbEsi7ryypfnClELqUtd3euwbZtcLsfy8jKFQoGhoSFvb7y8o/7+AQIE+GSwoxJsVEsrXHznVf7oD3+Xv/j+GY6c+DK/9l/9M371lx4maoLhFnBcE6wodUxwHEKmuaPMDbo2pJOLrjWJOVuEc6lU8rJzFYtFCoUCpVLJ06LRQq0ahkFzczMtLS2eVt7S0kJzc7MXGtTRcj9HVIzwW4FOjEIW4tSFKoOlso6JZr+5ucnm5iYbGxue93dHR4cXfjSkMqGh6qBarXqe5Kg93WL21icVOnHdq3CVed9Qpu319XWuXLnC2toaX/ziF70EG7VaDVNzjgwQIMAnh3tXgnwsuNiO3ViTdhwqlSrVWg3HEbO2gaE2Te9U852h1iCF3ISQhYDkOyFRgKamJi9m9969e73woOKYJQQvAlyuP3LkCHv37vVieEcikR/bhLrdb6Tcct5SXuptbW2eCbynp4doNEqhUPCCoczPz3vb6lB1IM9Akbbhc5KT99Wvv1chbS1tJ6Zu/dAREHSAAJ88dpQmXSkuc+7NF/nGv/1X/OX3z7Jr9HH+X7/x2/y9X/sCTREwjRJg4Rghaq4BjkPYsnbaTIa65u2sa41i8tW1VRHUIqD9BKsTpqFMz/I5FApRLpepVqs0Nzd7z/i4Dleu0vxEq9PPC9mglVXeQa5xHIeZmRmuXbvG1NQULS0tjIyMcOTIEZLJJJaWRtRVQVlczbyO5mgn67f3MuQdUe+Vz+e5dOkSy8vLWzTpAAEC3DnsNP5RxAGuA5VqubHHt664HqDhN7ZFgO80iHYo665++DUpITi0ehPTp6OCvwhJyn2FiMUzWu4nRKiT+61Cyr1du+mTCJ3ExexdqVSo1+t0dHRw33338dhjjzE4OOjl/L506ZKXHlNMwLoTlbyfELb5GcmyZVkW+Xye69ev8/zzz/Pqq69y7tw5XnrpJSYmJrx21+sgQIAAnxw+KM0+42iIEBfHhUq1SrVao2bTyCENDZZW/+5ULUGIRsjmViDEKocIbf2Qc7KOK6Qt685yOB9j65XA1Mzycuj31snaP4FwXZdEIkFvby979+5leHiY1tZWzxN8enp6y1az7Z4nE4XPSt9x1ba5+fl5XnnlFV577TXOnTvH6dOnmZ2d9drRVdaKAAECfLK4NQn8GYJQsOtCrVqjWq1Sr7k0FALNNKsdOw2GTxv2QwjOrz3rwrqucmILEYdV5LZ6vU6pVPI00u3IWF/v/jjQyyH31ycejnIAE69s8fqOx+OeJg/Q39/P/fffz4kTJ4jFYoyPj/P2229z4cIFlpaWqKnEI2Etlvh273OvwlXLB9Vqlc3NTc6cOcM777zD+fPnmZycZH19nUql4vWFQJMOEOCTx2dqC5b7EVuw7FqBpflpLp49zeWrS4Tj7Rw78RinTh4mEYGQVQfDatyLxtarnUbUQnAieEWrFS1U16zlWiHySqXC8vIy4+PjXLhwgUuXLnHlyhWuX7/OtWvXGBsbY2xsjJmZGdLptGf6liAgch95znYThI+CkIRfc9YnFaZmWtdN+o62ZUpI3VIe4c3NzXR2dnp7rJeXl1lZWaFSqXhBbAxfhLZbtULczTBN0wsLOzs7SzabJRqN8swzz3Dy5Ek6Ozu9CZgsNXycdgsQIMD2+OyQtGHiKl8xSybzPpJ26kXWlua4eO4dLl1ZwAg1c/T4ozxw8jDNcYuQWQPDwDXMxn7pbUjaT0xCaIK62u4jAnq76z9KiPm1kY+6/k5Ayo1GeHJefzfDMMjn86ysrLCwsEAmkyGXy3lhMkW70k3eglqtRqlUolQqecQphzxPf3cpj78O/X+zDUnr76I/R7cWyH30MhjKfN3c3EwqlSIWi+GqRC35fH7Lerah1qn9ZZAJgl4eHf72Zps23+4atrmObepDt3j476Nf5/qi8Ek9yDvlcjnq9Tqtra383M/9HLt37/bCusq1+n0E25URXznls+vzR9C/1/++m7Bd2fQ6/yxju7aS8/5+GODj4TNH0i5gqVPyh2NAHQfXKZFNr3Dx7GnOnZ+j7kY4et8jPHj/UVpbIlhmDddprE+7hoUKPoahCRERuCLEXSWwDSWAC4UCqDjdaPt0RVv7qI4rAk4GuVz/Yb+5E5Bn6kQmRCsak/w/MTHBW2+9xdmzZwmHwxw6dIijR49y7Ngxjh07xtGjR7ccu3fvprm5mYmJCS5fvsz09DStra1eCkldMOvvrteNTuS6kNyuruQ9dPL1fy/X+L/Tv5drurq6GBgYwDRNlpaWGBsbI5PJEI1G6ejoIKwynkld2Spkpj4hELiaWV4XeGwj9LaDXgeGb21czutbyOR7mTTo99CXKQw1OUFZSKrVqhcEZmBggJ/6qZ8ilUrh+LzxHbXOL5MWOQTblVN/d6k3KZf+HnK9fr+7Af6yuWqZgG2sKfKe9yr8df9RfWm7Ph/g9nDvb8FCuWobIWy18yriqg82EIa62diCVa+uMXHxHf797/3f/LtvvIYR7eTX/+v/L//oH/xdhvuaiYSLuK6JY4RwzfAHSFrXDmq1GsY2HuDuNpGn0ASkCEC5l5hJBY62TxiNYOTznYQIF738Al2YmqZJoVBgbW2Ny5cv4ziOF4ykq6uLzs5OL7mIvLeUXdaB6/U66+vrpNNp0uk0m5ubdHd3Mzw8TEdHx5bkJFIX29UJPjP1nYQukFzXJZ/Ps7Gx4b2DZNZqb29ncHCQ3t7eLWWv1+tbzPtCiH6Sk/fT30fqXn9X/Z31viV1U1cOeuFw2HuWnqpT3qNer5PP5z2rRqFQYHNz09OcDdVfs9ksq6urlMtlDh065AWeMZW2HY1GSSaTtLa20tbWRnNzs9eGOuTZ/vKjhLurZZyT8qHaXa+ruwWOmjjqZdbbSZ90+Nv1XoQ+DuWzDnlnvR0DfHzsGE3axsG1S2TXlzn/7lu8d2EG10xw7NTjPHT/fbQmI1iWjWGYuIYJptUgZ8f1zN0iBPWBJwJKOqwMQvlbOrFOKnrH3q4T64NADvn7TkMEjrwLGsGg3qNer7O6usrc3Bxra2skk0mGhobYvXs3nZ2dXg5ovbxSHyK8IpEIbW1ttLS0EI1GyWazXpSyqMrTHYlEvN/o9bhd/fqfdydgaELWNE1isRgtLS0kk0lM0/SyYVUqFWq1GpVKBVPT4F2NnGxllUD1ATQTqXzW/5b3xVcH+rXSZtJutlpekOe5ruutLzuOQ6FQYH19ncXFRZaXl72oa4VCgXw+70WOc5WwtVQQmObmZi9Qjas0ddGe62qPfalUIpvNeqlMZcKmv4e/vaSMen3Je8lvthsvP2n430dvJ3yTyE+jn95pOB/iJOh/T6mDAB8fO0qTdmppZq6+x7//1/83/+Y/vkDN7OTv/lf/jN/6zb/L7sEk0UgZaGjSjhnCcKFeq2IpoVGtVrGUN+92cByHSqWyRVuqVqvU63VPg/koiEDSB74M6k9rcJdKjXzbognZdiPFZyQSIRwOk8/nGRsbY3l5mVOnTtHS0oJhGDQ1NX1A+92uzLKGG4/HMTSrwtmzZ7l8+TL79u1j9+7d9Pb2ekQjwluEPRo5+UnrJwFps2KxyPj4OOfPn2d9fZ0nn3yS/v5+mpqaSCQSGIowy+UykUiEqMqXLQQXiUSoK49qR2ln4j0ukPcVfFgfk7YLh8NbkpaUSiWmpqa4evUqMzMzGIZBW1sb3d3ddHV10d7eTnNzs6eJSxlkfbpUKnltIZ7ypVKJTCbD4uIii4uL3gRueHiY48ePexYSsULJO0iZS6USYV/IVdu2tywf3E6Y2J8E9AmT3lc/S5D2NrS4BPK+uk9GgE8GO4qk3XqGhYlL/Mff/x3+4D/8NaV6O7/yX/5T/uF/+6vsG2klGq2Aa+KYYRzDAhfseg1jG/Oc/rmmxS6WQSrXCCyVjEEElE7k+LRr/bP+vDsNV5lMpfyhUAhbrS3J+xWLRc6fP0+5XCaVSrF//34SiYR3vdxH6sdxHC93tFgcaiqaWSKR8Aa4YRik02nm5uaYnJxkcHCQAwcOeFq5lEkXClJWcVz6ScBW682y5ix1tLS0xMrKirfVLBqNeuFHW1pavMmF9Blpc/+7yTVSBzJZkf4g2rhMEqQMcs5Ra8Sm0p5Fc15ZWaFer9PU1ERrayvxeJxYLEY0GiWRSHgTMkfTAnXSkeeapulNOkRwFwoFcrkctVqNYrFILpcjn8/T3NxMb28vu3fv9toejYyl3CiyM7fxIfhJtfN2kPo1fEsMtm17ZdffCW05616EvKejJkzSL1DvrZO0HZi7PzHsKHO34Vao5De4/N4Zzl+cpFKPcui+R3jw1BE6WhOEQjYYZuNehgk0TN2GGpD6LFE6qD5QRYjpxKYLWVszcfqFjxCVDGB9AHyanVwGm24JqNVqxGIx6mod+erVqzQ1NbF7925SqRSWtrfYL4BcZQ7VBRnq/eV3QsDxeJx4PM7a2ho1FWQkmUx6ZZE6knoSQfBpr1OKkJKyS1lMlVNcMm01NTV55t5qteqZwV1ldpbJhatZT6Rf6H1Hzul1pdeD/C2CUwSpfmSzWRYXF1lYWGB9fZ1arUYikWBgYIDdu3fT19fnac9C0iJ09TJJGaRPu5ogtiyLRCJBc3Ozp5XH43Fc191SD47jUC6XvYmNlF+e5ajQqnJP/X0/zXa+Fej1r/cHaT/9vLTdvQxXjcHt+qbeRv7+HODjY2eRtFGhVsxx5cJZ3rs4SaFscejIww2Sbk8QDjlgmBiGhUNj07VlmY10lerQBx+acNH/lvU53TQnvxVznqvWeWWQ69A7+6fZwV3XpVqtegNQ/pZ3yWQyzM/Pk81mGRwcZO/evYRCIaoqtKajaX7yXpZleWvMIbXvOKSFBdVNZyhtvLu7m5WVFcbHxxkZGfHM4iIIpKz6M/zf30nU1Hqzq0VMi0ajhNV+YWlryag1ODhIKpXixo0bzM7OsrGx4W3nCqksW0Liel/yCziZHKD1JyE1mQhJXVQqFW9SWC6XGRsb48yZM6yurjIwMMCDDz7IgQMH6Orq8gj5Zv1N6tlQfbtWqxFSVhbR0kPKMqRPVgBisRhdXV0cOHCApqYmMpkM7733HnNzcxQKBVpaWjwtXn++TGbYxkJzt0DaANU2deW3If3c1KwiMtmVZQNpu3vpQE3iZbJhqv6p14PeRvLd3dRm9yJ2FEmbRhW7nOfqhXOcu3CDbNHgwKGHeOD+I3S3NxEON0gaw8R21TaCWhVDM0PqAksGpmh9Mls2VO5iS8s3rBNJTW2JETKTe8p9pcP/JKAPSEPLJ+04DpOTk8zMzLB37176+voIh8Mewcp+2Vqt5nk9V1Q0KoC1tTUWFxe3rDeKtUGISd7dsixWV1fJZDKeI5quTbuaUxua4xWqzHcKQqaAN+mQfqBbSNAsENFolGg06hF2W1sbADdu3GB+fp5CoeBlAJO6lrqQ/iR1qNeP3kaoOrC0NJymaVIsFlleXubatWs4jsPQ0BD79++nr69vi/e9qYhe79tC8NKf/fUtdS59Wi8Lqq7k3nKEw2FaW1vp7e0lmUxSr9dZWVkhFAqRSqUolUqeNcBft1KGO9m+HxeuZuGQd8Vn+pY60+vxXoSUX5db0i7+trlb2+tew84iaaq41QJXLjZIeiPnsP/QAzxw6gjdHS2EIw7wPkk7jo2r0lqKEJMBKZqjCDS0TqkLTFvzgiwUCmQyGdLpNK4KR6kLYP34SUB/tquZtUzl0T05OcnS0hLHjh2jra3NE6Ly/dLSEuPj44yPj1Mul0EJ9Hq97u2J3tzcBGXadrWQofJMV5mvJSCKZVnEYjGam5sxfGY0gS4M7mTduZpZO6Stg0v7yme5ztXM2pFIxFv7NQyDjY0Nb8uTTFikLoQA5V5o7yj/y3fSZnKdo7TqcrnM6uoqq6urVCoVurq6vDVxWQ/eTrjq9/Y/W9pan0jIeUMzTctY0cuL0jATiQTt7e3EVFCYTCazZcJmKUuLTnp6/frLezdA6kqvU5ngoFkCHN8SxL146O3KTeSW45NpAX487CiStqjh1kpcvfgeZy9MsL5RZ/Rgg6R7u1oIR1wvLGjdaQy+WDRCtVLxnJ8MZfKTsJaJRAJXEYtoQ6bSTIrFIpYyh5bLZWZnZxkbG+PGjRu4rksymdwiyPyd3Q8ZIHcSunA2fOugi4uLbGxsMDo6SktLi2e6F43o+eef5/vf/z5vvPEGbW1tnoaYz+c5c+YML730EqdPnyYej7N///4tQtk0TWq1Rix1IW3btllaWiIWi9HZ2blFYPs/f1i9fZLYrq3kPRxlWXGUM5vubS1tJ9rkvn37vPX306dPk06niUajXr36+4UuFFF1Y/uCpchzXddlcnKS2dlZyuUyDzzwAMPDwzQ1NXlkGIvFsDRLjhCv3Nv0WTjk/M3KYmoEJQJdL7urlnfk+eKwFgqFmJqa4sqVKwwODnopQXO5HIZhEI/HCYVC1JXFSsp0t8HQlhpczQ9DylsulykWi9hagpl78ZBthWKJkffV20SXH3djW91r2FHe3SHy1POrfOuP/oB//W//irEbeb7yzH/LP/hv/guOHx6iqdkGIwRYVGyXcrHI+toaP3rhBS5cuMAjjzxCV1cXpVKJF198kVOnTvHlL3+ZRCLhCTwRYGj7IwuFAm+//Ta2bXt5kyWL0qlTp7x9tkLw+j0Eese/U7Btm2KxyOrqKoVCgeHhYRKJBI7jsLa2xvXr18lkMjz++OO0t7djKg365Zdf5rXXXiMej9PT00NPTw/hcJilpSVKpRJf+MIXKBaLvPvuu/z+7/8+DzzwAL/8y7/MwYMHaWpqAqVxC8nJkclkePHFF9m3bx8PPvigt5Yv9Sxk8GkK7g/TEmRCI+Xz9wUhOfmdeD6n02nPclAqlejo6GBgYIDe3l7vnW1tLVr6mtSXkGOtVmNpaYmlpSWq1Sqtra10dXV5W5+kHIZGnCJgpUxyTu9v+nXyLLT1Sem7rs+nQe6r30OvH6kDiYNeLpdJJpN0dnbS0dFBRO3pFsi7++v9boDUj3zW66Fer3P58mWuXLmy7Ta5ewWinOzdu5ejR496+cRlsih9wz9G7sb2updwb/aW20SDyhspM0T7C4cbTl1WqGFiNEzVkTTNEcOgVq+Ty+WYm5vjjTfe4MKFC6ysrHjCToRU46dbhVs4HCaXyzEzM0OlUqGpqYnu7m76+/tJpVLU63VmZ2c9k6Q4D5VKJcrlMmUVF7qmnHUqlYp37k4ely5d4rvf/S4/+MEPOH/+PAsLCywsLFBVoSHDKpBFoVDg+vXrnDlzhsuXL9PV1cUDDzzA/fffTy6XY3Fxkc3NTWKxGAMDAwwODrK5ucnKygqbm5ueSVggQg3w1nGz2Sz5fN7THOV6+awLRr3+9XNCkELqPw4+TOgIidyMSKQ8co/m5mb6+vo4dOgQIyMjJJNJXNdlfX2dyclJxsfHWV5eplQq4SjLzMbGBtlslppy2BLYtu2Zt8Uhq7e311t/RpVPJ9nt6kq/RupODv23OvzvK/UgE4G6cpCUewtM0/RSgw4PDxONRslkMp4FQC+fTvw69HaX4ycBf7mkH6C1zczMjNdu9+Jh2zbLy8teH9PHkky+/H3MXy8Bbh87QpOumS4VakQpEXbzfOdP/j2/92++xzvnl/jqL/9j/vE//HX2DCaJxhr7pCs1B0IRLNOkUioxeeMG77zzDt/61rfYv38/X/rSlzh58qRnmhPScrfZcnD69GmuX7/Ok08+6a3j1tX648bGBs8++yz9/f1eOkQxh8kAN5RTlqPSK97pTm/bNr/zO7/Dv/7X/5quri6+9KUv8eSTT+I4DvF4nO7ubo4cOUIkEmFhYYE///M/5/Lly8RiMf6H/+F/YGRkhIWFBf6P/+P/oLm5mUcffZTHHnuMcrnMG2+8wb/4F/+CRx55hN/4jd9geHiYtrY2L8iGEGlIeQ4vLCzwjW98gyNHjvDFL34RUxPU1WrVW2Jgm8AmaJqtHCJAbkXz1oW9fq0umIwPIWyB3Md/v+1+Z9s2lUqFixcvenvR9+zZw5EjR+jt7fWc7xKJBD09PbS3t3vvlsvlOH36NJFIhP7+fo/0pLxSL1IPhqbdoson10jZHMehVCphKNINK+91gfx2u3cRVNTkUxwLDW2rmKHaUawE4XCYc+fOce3aNY4dO+bl80ard9M0kJQ3fnKWe+plvNOQ5/o/CxwV4Oi1117j+vXrfPWrX6Wzs3PLNfpv/L+/m7CxscELL7xAKpVidHTUcx6VcSZkHuCTxY5akw5RxzJqXLtynnMXbrCyXuHwsc/xuQeP05qKEqJCvW5jhsIYVhjTMLBUqr5iscizzz7L/v37+Rt/42/Q2tqKq9aexNFFvLZFWDiO43nx7t2719NCQ2oLUqFQ4NVXX6WsEnSsr6975sq1tTXv8+rqqqfNSjSnO3HMz88zNTXFuXPnmJqa8kzfMzMzVKtVmpqa6Orqoru7G8uyWF5e5s///M8pl8vs37+f+++/n3A4TDabJZPJcPjwYU6dOkUikWBqaoqLFy+ysbHBqVOnOHz4MIuLi9y4cYO5uTlisVijJbXJTi6X46WXXvKsChcvXmRiYoLZ2VkymcwWbcsvoPXzujYgh6NMxTIx0O/h/+xqWbx0ItMJwvE5Fsrf291P7qmXUf63LIumpibP5Fuv1712efnll3nllVfIZDKkUin6+/sxDIPFxUUmJiao1+t0dHTQ29tLU1OTVxd1tTVIJjjyPlIXUke2WtuWcst5S/kNyG/FzC3f69DrRK5HOU/p9aY/V86H1DauSCTC3NwchmGQSqW2XGPchNCE6PVn6BOSO42blUvqenZ2lnQ6zeHDh2lqatryPvfKUalUmJqaIqoSybS0tHjKhN5nAnyy2JHTHtNoCCfLsrAME0Ml0sB5f0boODbVSrXB88rDuLW1lWQy6ZkPbdsmn89z+fJlz+QrkZZEI46p+M7ZbNYzEZlanOdkMklzc7MnxERjaZjkG4Sun5Pzd+oIhUIeGe/evZvBwUHa29tJJBKEtP2qKOE/MzMDwMjICKFQiEwmw/LyMi0tLfT19dHW1sbm5ibXr19nZmaGhx56iNHRUU+QF4tFFhcXOX/+PEtLSxhaZC15b0NZHxxltq5Wq+RyOVZXV5menmZiYoLr169z/fp1xsbGuHbtGpOTk8zPz7O2tkYul6NcLnv3kPtvBxHu+nX6tboQulWBpAuvj/qN4zgkk0n27NnD6Ogovb29mKbJ9PQ0p0+f5kc/+hEvvvgi7733HotqOUESlbS3t9PV1eX5PaBp0EIW/vfjQyYQhkbScp+bQdpGP/xt6K8D6e86YXd0dDA0NIRhGF5fkomD3FdvP7mX/j5o5BggwL2OnWfupsj3vvkf+P1/91e8e3GNr/4X/5Df+u9+jZH+FiJmnpoDVjRBrlimXCqRiMdZXV7m6tWrvPXWW/T29nLixAn27dtHOBxmbm6OP/3TP2VpaYmuri5+7dd+jcHBQcJqe1U6nWZlZYWNjQ0vy1M8Hmd5eZmFhQVqtRq9vb309vZ6b2WpACAieHTz7M3I5ZOAqxxe/uiP/ohnn32Wxx9/nEceeYR9+/YxOztLsVgkGo1y8OBBEokEY2Nj/L2/9/c4deoUv/Ebv8G+ffuYmJjwTLXHjx/nwIEDXLlyhe9///vcuHGDf/pP/ynRaJRcLsfIyAiFQoGJiQleeOEFnnjiCf7m3/ybnlk/nU7zrW99iz179vDoo496wr5SqTA/P8/8/DzLy8tsbm56ZtNqtepNjNrb2+no6KC9vZ1UKuVl6tK98HX4yVmIQ9fk7iRsFWdb2l+0lHQ6zfe+9z2++c1v8uKLLxKPx/lbf+tv8dWvfpWBgQGy2SyVSoUHHnjA0zyram++TKxqKsCO3NPRHL50bUi+k/etaeFObwbX57ktZBmNRr061klVvz++GN2maVIul5mammJ+fp5arcYjjzxCPB7fUhbLt5+8oryO5R7+e94p6O/lnziwjbn7F37hF+55c3cymQzM3Z8idpS526IG9RJXL5zj3ffGWUtXOXbycR793ElamkJYVg3DsMCwyOaLzM3N8tqrr5LLZkmlUriuy9raGjdu3PCSTyQSCXbt2kVbWxvhcNjTjCXphAiT5eVl0uk08/PzXL9+nYWFBSqVCv39/XR1dXkmMDH56Z1dhNGncZjKmWd0dNTbuhOJRCiVSuRyOYrFIj09PZ6XaiQSoaWlhfX1debm5gC8CFv5fJ6JiQnW19fZvXs3X/jCF9i7dy+pVIrW1lZSqRTRaBTXdVleXqa3t9fL0yyepJOTk3R2djI0NOSta1pKO0smk/T09LB792727dvH3r172bVrF0NDQ15IyrryEl9cXPS07hs3bnhblDKZDJlMhnw+T105OMlyhLSd7YvPbdyGIL3ZpEoEm/wvn+XdhOxs22Zzc5Pz58+zublJc3Mz/f39NDc3U1HZpdrb270+aG0TP97QtskIwQlBSz+rqiAt8lz5nb+8QsZildCfod9P7uXvXwIpk2i7QqxolitHrYlvbGxgWRatra2YWhQvvS2k7uSZck/97zsJ/7sJpKy6uTuhYt1vd/2nUdaPi3K5zOTkZGDu/pSxo0japIpTLXL10nucvzRFsWJx4oEnefThY8SjYBpVFXHMolgus5HZYH5+jmRLC/39/bS0tHgCSogomUwyMDAAStDFYjFSqRSpVApHxTgOqdCZdRV9rFKpEA6HvZCRyWTS03i2EyzbCbk7AXmGvFNfX58nUAw10VhbW2PXrl3E43Esy/ImGEJufX19nqeyrRyhWlpa2L9/P4cPHyYWixGLxbz95ZISMRKJMDg46E12CipfdS6Xo6+vj/7+fsIq0IcQWVNTE21tbXR2dtLe3k5bW5sX1SuZTBKPx7cQnqtpfHUtUly5XCafz5PNZr319LTKca3nWa5roV795HurbSO/c31OW6h7+K0mUuZ8Pk9HRwejo6OMjo7S3NyMbdte7urh4eEtv9Wh9x8/icln3TRc98XNFujkzzaTR+m78t12//s/6xqYlMFSlgRDWU1u3LhBPB73TP9SDnmu3NP/fP84upO42fsFJB3gx8WOMneHKWAX1vjPf/7H/Mm3X2Utm+Crf+cf8ff+7heImhA2sjhGCNeKkCs0NEe7ViMWjXpmUiHZRCLhEYBpml5c5vb2dnp7e+no6MDWQhyayhEqn89jGAaJRMIjEcPn6CKCRoS0LojuNHQhLOUQPPfcc1y8eJFf/dVfpa2tDdu2PZOmTjSucqgzlSc1aj9sVQUqEY/sTCbDtWvXyGQyPPHEEzQ1NWGrdIQzMzNMTU1hGAYjIyOMjIxsKYsfFbVVLR6Pf6DcgpraxlYsFimXy5RKJQqFAtlsls3NTdbW1shmsxSLRQy1RaqtrY2uri7a2tpoa2ujv7/f80kQEtDb7KOwHUnr7Wto0ar8pCu/qVarXL16lcnJSbq6uti1axf9/f1Utb25Qnrb3UdMwTLhQFtTlolkVG2B059d0xKlyLv730PuJ+SEr560G+JoZlJD+R1If5f6XF1d5Vvf+hYHDhzg8ccfJxKJeBq9ocaWfzLxacLf7+WzwAnM3QF+TOwoTTpEnbBpMz52gUtX52lO9XPficc4fKAf164TNqsYoQiGaWFYYWKRRtq+RDzurRHq5mjpkJubm6TTaarVKn19fd4M0/ZFbjJVpB6J9oQalCIgbW0f8M0EoPx9J+AXxFIuIe58Pk+tVvMc2Jqbm706cH37YeUeInSkvupq3/nU1BTPPfccm5ubtLS0sLy8TFV5kIfDYS+86K5duzzTtaM5cun1JvfXTdT6O+llCKltW/F4nObmZlKpFJ2dnd5e3T179nim88HBQTo6Ojyy2tjY4I033uDs2bNcuXKF69evMz097WWW2tjYoFgsUlHbjmQdWMrtJyv9s5Ca1LUQLZqgF+RyOSYnJ1ldXeXw4cN0dXUR9qWV1LVSv+CUPmSq9d9isbjFSiHmfrS1bLm3tKP0RXk3eY+KSjyi9wtHy5rllUG9v+nLrCXtK59lDNnK7N/W1uZNDP19TCBl4lMkPf05W94z0KQD/JjYUSRtUSdEjcvvneHC5Wl6B0Y5dORh9u7uwHAcwlYdQhEMTAzTIhwOEQmHCWvCX4SUrUy5QjjZbBbLsoirdIuibcnvRPDo5GxoJkVdcMp3IrA+rQHgaiRtbZPnWP5fWVkhHA57EYfkt1JOPxmJgJd7bm5usrCwwOzsrGey3tjYIB6Pk0wmqSjHsEKhwIEDB2htbcVSkx5/XUj5uImw267OhIgiKntVIpEgmUx65nIxn4uzWUxL8JFOp7G13MeumpxUVBAaMZtvbGx4690bGxsUCgXKKudyTcvw5G9rQV2lBXUch0gkgq2sMjUVVSyTyRAKhTh48OAWb265l7SjkK3ePvp1i4uLjI+Ps7CwwNzcHPPz8952vJmZGW/tfn5+3muz6elppqenvevn5+eZnZ1lcXERV8Wkl4mNo0zTUl9+6O2ot61O8s3NzWQyGRYWFryEK2Kdkmv0+8hER7//ncZ2fY+ApAN8AthR5u4IRYzqBn/yb3+Pb/7lGzz4+C/y+Of/Dg+f6iGMS9gqQCgKWNiYXi5pvduJA1G9XiedTjM7O8vFixfpUKEcq9Uqu3btYvfu3aAF6NA1hXw+TyQS8UJi+iECS37HTTSiTxqOctQJh8NEtUAYaGSyvr7O9773PYaGhrj//vuJaHmRb6bVVFQKRiG66elpZmZmvHVHW60Ld3d3097ezsLCAsVikVgsxqFDh2hqavLuY2gmTkMjNzHhynf+uhJhKVqhlNX1Z2syDNjmHVx9suK61Op1isWiZyqXI6fCe1YqFerKEUpfP5ejtbWVFpWm0W+OrlQqZFRKx6GhIQ4dOuTVUzab5b333iMajdLX17fF5CiTx5qKgS4WA3yBYgxlhajVarz22mu88MILTE5ObglcgqqzcrnstZ3rup6VwDAMYrEYERW2tFqtkkwm+aVf+iVOnjzJ4OAgqPFiK9O63BPVn/Q2clSwHktLuCL9zzAM3nrrLS5cuMCJEyfYtWsXnZ2dXp3o7yXtzM3M7J8w9PfRPwuk3wbm7gAfF0apVFQkfbudw8/tt/v7TwJC0o3EGDbgAGEhaQcINUi6Sg3DyZFfneM//eG/4tkfnOMXfuW3+NxP/TxHDjQRcsGkgItF1XYhFCVsvU/UIkQczaSYzWZZWlpienoaS3nZtrW10d7eTlIll7C1IBhy1FQyBFTKQxmY/sGtQ54pguBOwD8x0MnDUII9l8tx8eJFisUizc3NHD582CMCEa5yvdyz7osvXS6XPU1PCFDeL5/Pc+7cOTo7O9m3bx8tLS3eUoNOln7NTL7TJwr6vU1fqlE0wSrPlnN++H+Dunddc0CTtVz5LO0un2tqPVwOW1kF9HuHQiHa29tpampic3OTP/7jP8a2bUZHR3n66afp7e2lUqlw+vRpL5xoS0sLprbtyf/OMpnx14+rtO3z59/jRz96kb/6q2dZXFwCoLe3h/vvf4CjR4/iOA7RaJRINIqrCEfIFOVrMD4xwaWLFykUCvz6r/86TzzxBAcOHPD6upC0i4tjv+/FLuWW+ne0ZR+Z+BlqrXpqaorp6Wls22bXrl3s2bOHcDjstUFExfmWdxNs156fJORZ+nP1ZzoBSQf4MWF97Wu//XUh3IbQANc1tiipjuMCBoYBruuA4WCoC1wcwMUAbNvBth1Fa417NITD+zNiGYgC6dzS0DJg/ZAB4B8IruM2FB9DTF/g2uBFDzTAcR0cw8Wp1kivpnn9tbe4Oj7H01/6Cnv27CXVEsYywTBcXNfAccEwTSzV4Qz1XFuZHMVcaiitLhaLkUwmSaVSdHV1eduTdCKRDiy/l3cWIaq/k8DYxnR8JyFlQ72vXi69nQzDoFQqkc1mvfeMqL3H+m/l90IghtJ8otEozc3NDeGv1rcjkQgbGxssLi5SqVS87VhSB37tWK8PeZZex/j6iv69fp2c18vrh3znf6ZofeKtLmvcra2t3oStra2NlpYWmpubPauDtLn0eTmkjxUKBWZmZvjOd77DxYsXvVjW4mleU3vrRUj6y2r6Umk2it0Yv43nOo00rLjYjo1drzE9M8Xi4jzLy0tgwP7Rfdx//wPsP7Cf3Xv2MDQ0xODAAAODAwwNDzGyaxf9AwN0qv6ez+fIFwpejPa+vj5c1fbOlsQzqg+Z70+c9LbRJxPSLo6mKU9PT3vm1pAy5ePzVJf+Jve/k9Dlkt5H9OfamrlbLEP+a0X2odrw/b7buEdDAisZ69iYRqM9BY6yjMiyS7lcIRwOAXLvxr1cwLFtCoU8hUJe9YsP9m9UufQxVC6XmZmZIRaL0d7e7m1Dle/l0H9zp+v/x4GUT8adnPPjZtfo7yl/67JOh/QPtIn0dtdtB+trX/vnX2+QbYOMXQccF8DAccC2oVarYxgmpmlg23XAbpAgDtDIuYxhUK3WqJSrGJiyMky1Vm0IBDXwROPwDyqZEeukJZBKkpfTv6/bdQwMDCUE6rU69VojrrNhNn5bs2u4jku9apNJZ3n99dOM35jhq7/wSwwP9ROyLEJW4x6GGSIUajiGGWpgoCozpO2fNbU9wt3d3V4sZfECF6Fi3iRik070cujY7px+/k4daBMK0fbkufo7uMr0OTU1hWVZdHZ2ElJpEqWtDU1jk3qQ+xvahK1arVIoFLh06RITExM88MADDA0NeaZg00fO8nu9zPpn/To59O903Oz8x4FeJnl+KBQiGo165u6enh6GhobYvXs3e/bsYc+ePezevZvdu3fT19cHyqP58uXLvP766ywtLbG8vMybb77JzMwMhmFw/Phxdu3aRVKlOvW/6/b10zgAbKcx1nBd2lpb6entxjRNlpYXuX59gkIhR3dXF3v37eP4iRN09/TQ1NRMMpWivaOdzs4u2tvbaW1rpbOzk9HRUeLxBBiNtu0f6Gd4ZBjHdbAdB9dxcHExLRPLtLAdG8M0Mc2bjwuRA4aaDMVVHu4zZ84QiUS8vfphFSXP39/kXtJ/7wREJukTCymDCGs0ks5kMl7mN/8YkLEm79wYR+8Tt0tDGalWq1QrZULhMKZSTFDbP0ulIhubm6yrXQrJVBJDLTmYloVpGLiOS7VaYWGh4XfQkFWNOhTIM+Xd5O9qtcrc3BzRaJS2tjaampq21L3/3eXvuxXyXrbyL0LL/a1D3qmqYgmIHJO2u5W+p3+uaw623IIMsv7JP/3vv47hYhmhBhEbVmOWazS0UdMA07KwrMY5wwSHOrZTxzSVlolLvWZjGCbhSJSQFcaxG4UJhxtkaWiCxPJlCpICS4O7atYiZmEZALoAwps9NiYQlmVhoMprGjiuDQYYZiP+tolBqVDi3LkLTE7P09yc5Cs/82V6ezoIhxov4irLuas+6BW5UyD1LQc+8kGRrKW051QqxcbGBtevXyeXyxEKhWhubsZQWnO9XvcmI45mEnM1kr948SJzc3O0trZy33330alyR99s0vZZgj54TZVnGaBUKpHJZBgdHeXJJ5/k6aefZs+ePbS2tnLq1CnPaU8fD9tD7u82RqrbEPaNNjSVFQpaWpqpVMpsbm5QKBYoFHJkszk6u7poaUnR0vK+cxoo1qcxOQ+rULKpVCvp9Drd3d0MDjZCe5qmiWmJRt94nm07jTGrJsK3ilqtxvr6OolEwrNOyMTQXwfSz9hm8vRJH7pskj4vz5W+PjU1xcrKiufo5y/bduVEEYi0XalYwjAgEo1gYDQshI6NYRrkC3kWFhe4cvkKrus24heoUL66kuAqIimXyxSKBaYmG0t1ugleno3qn+VyGRS5TE1NEQqFSKVSHknr18tvbvZOd/Mh9STvsB0xi1zKZDKMjY1x/vx5crkclmV57WqaJsVikcuXLzM2Nsbc3BxNTU2eLJNr5LkfBeuf//Y/+XrjBxa27QImlmk0Zt7qIrcxFhXZoszXLqZpNEjaMKjXGyRtWSEM08B1GuQdClvqN1tNWPg6qHwnEJK42UvpROK/j6E6o3yWGWE6nea5556jUCiwb98+Hn74YVpbW71rRGDqFXcrlfhZgXRMve78bWVoUavEXF2pVLzY5IVCgXw+T7FY/EDKzUql4u1HXllZYWVlhfX1dUqlEpZleRqm/szthMC9hO36lP871PeWimAXVnHUY7EYR48e5eGHH+bkyZNYlkWlUuHEiRO0tLTg+pZLPgoujaUfQ40px7ZxlQBqURHyXNclk06ztrbO6uoaVihMW1sbvb19SkMyMAyzcR9vwtawFoTDIRYXF+ns7KSvvw/TMDxtuTFOAWRsqgmGv5AfgroK6iLjuU1FWNNlgBy6nLmTEE1TZJdoV2hjpq5S0q6vr3P48GFvEqv3jZuVXe4v97E0C1zdtrHrdayQxfz8PBMTE1SrVTo7O+nv728462my13UbyxuStrdWrTEzM4thGMRVcCLpT3rZbLWboVarMTk5STgcprW11Zsk6XIbjaTlHe4m6PV8s3Ouz3Lb6OMNn5hyuczm5ibz8/O8/fbbvPnmm6yurpJQmelCKtnSxsYGp0+f5uzZs0xPT3v+Nf46vpU6sv7lv/za103DxHFcyqUyBiahkKwtgu1ArSoETIOclbaqvSau2zCXO44LroUVMgiHGzNneWlpTKkAtvHAlIJLZ7R8s0C5Rj6LeUI6M6rS9d+UVXKFpaUl/tN/+k8kEgkee+wx9u7dSywWw1XOTVIevUy3UomfJdhq3V2vBx1SJ2JmrFarXgCX5eVlrly5wnvvveeRtCTQKBaLFItFxsbGuHLlCleuXOHGjRskk0mOHTvG7t276ejowLIsqioNZSwW+8Dz7zVIP+UmRC31KfVtqRl5b28v+/fv5+jRo+zdu5fOzk5vUnPs2DEvYtvtkDQuDVOzshqVS+WGZhaOEApZtLa10dXVeM7y8jLTMzNMTU3T2dnFwYMHcF2XUEgi6KktXlaoYVKt11To2DydKoNX450a7+e4DWJovK827v1l/BA4allMtrbJmrzjS1Gqj1u9/j9pONtoWvp3UoZKpcLi4iKFQoEjR46QSCS8iYbIu+3Gm1dPZmPXgTjHyfvWajWq1RqRcJiLFy5y6fJlTp08yZ49e0ilUo2xVKlSVhEOpf6i0SixeJxwOMTK6qq3Q6G1tZWo2oMuEw1L8zcpl8vcuHGDcLgxcRM/i61lfr8NuMP1/3Fws7Ei56VdhJ/k3V21g0F29ExMTPDyyy/z4osvMjExQVtbG6Ojo8RiMarVKktLS7z99tu8+uqrXL9+naeeeoqenh6vvhyfqfzDYH3ta//8647bcPhyHLBCYSzLxHWhXge77mKFGgRtGOA4dTAcXBxK5TJ1pw4YWFYIywxhmqHGPmP1XMdxcdz3M+KgDaK6Wp+W865v+4RAOpef2PUXlPu7agIg964rz8+ycnp46aWX2L17N48//jgdHR2EtYhfIiSlfB9VeZ81yDv7BZ4f+nchteYajUZpb2+np6eH3t5ej2DryvtZBEE8HmfXrl0cPHiQwcFBRkZGPGc7Q83axWNUZvDbleFegKtNJv3CSu9fuoDW+7hoKZVKhaWlJbLZLE1NTezZs8eLrKaPk4+C4TmOubiOQyjcuL/jOjiug2mZRCJhQiGLXC7HysoqxUIRaJDt3r171Tq4ietu9eaVcsfjcTo7G5m4hJgby0+u0qwbpPN+m94eUYfDYZaWllhZWWHv3r3e+q7Un5CeDqnrT/oQeeHvo/Kd1E21WmVhYYFsNsuBAweIqbjkNS0tqD7mBK6yYDq2je04DWcx5RFbU7sjMAxWVlcYuzLG2toqp06e8sIXi/NrOBRS/jaN58gyomlapFIppqamuHDhAiMjI55TW7FYBG3Hhq05NMpYTyaTnvz0Q+pI/3y3HAJ/X5Hxamht62qhhEVxSKVS9PT0EFV5B2QZ4/7778dQCmZU5RnY2NigVqvxxS9+0Zu4Sp3c6vg1AUrlshcOsVwuU6s3vLplTVfuY9cbnpoNw9n7nijyIi5uY/3XBMdRJK85EdTVdhR/5ciMcjvIrEZ+J/BXuKl5crranti6WqSfmpri/PnztKtkBH19fQ1zkPb77QbKTsN2deD/WzozKtNRSO2j7erqYu/evRw6dIjh4WFv33NPTw+dnZ20tbXR19e3JbJXd3e35wAk/Wi7Z97LkPrS603+306AyHgIqyhgtVqNtbU1LMuir68PQ5tU3h4MGlazxiTWsixMqzFu6vU6lmnS2trGiRMn+NznPsexY8eIRCJcu3aV55//IecvXGBtbR3DEMcYqCvzqWVZxGJxenv7SLWmMM2Gj8j7a+JSAkNFIPjAVx8JS+XaNk2TUqkE20xw9ONmMuWThBC067MO+s+LLLK1qHK6kPb3jwZc5c3t4Ng2tXq9sXtGXWNZFnbd5trVa6yn12luaibR1EQ4EgGjMfmxPPM4mEZjglSr13Ecm2g0Qm9vL47jeI5tlUoFR7MCSNmlzPI+UlZ/Pevn5Td3E/Ty6nWul9nwWTZcTXkMq8Q+g4ODHD58mCNHjlBXyzBVtUXXVL4lQ0NDHDhwgP3793vr1XIv9zbGr+niks9lWZhf8NL+lctlHBdCIYhGwDShXm+YdhrCpGF+ScRixJR5pFwqU61UwWhc79gqRKDmLFSpVCirqEuiMcmsUipHBJNAryC988t3eqVK5ctnEXylUok33niD73//+xw8eJATJ07Q1dXlmXaMbTL4SMMFaMDfYUXYyN/SppFIhPb2dvbt28ehQ4c4dOgQx44d43Of+xyPPfYYBw8eJJVKAdDU1EQkEvG0bblfXe2rjqpgJ58l6P3K378MLUKYaFlS75IJqr293ROcHxcNga8EhdHwuK7XG9a0aCTK7l17ePzxx3n6i0/T09vL6uoqr732Kn/x7W9z8eIFXLfhTOq6DrVqFdd1sawQ8XgjRWg0ElVz+K0TaT8ae0puHSIf9LEuYx8lgGtaGFPpo3fqkLbcbkygya66FpFO+rmhzNcN7+qG85t+T/l9pVLBVopGuVSmUi574ywUClEqFTl77hz5fJ7BwUHPTyQRj3sTMHmeYTTWORzbwcDwvLoNw6BarXqR8QwVtz6qAhpVVRvr5ZT3EsKR8jrbTEjupkPKK2V11ERCvrPVcp/0Wxl/KItIRQvmIwpIsVgknU6zsbGBq43ZUCjE6OgojzzyCG1tbV796ZOeW4EJsLK6xtVrjYD9+VyOcChEuVyjXIZqFQqFxgwhEo2A61KpViiWSlRqFSrVKrVanVi8EY+6UqlQrjQ8q2Ox6BZziWVZnD9/nm9961usrq56FRIKhSgWi6ysrJDJZCiVSt5LmCpHrKwNCGzl/a2/sFSOYRiNdZdYjFKpxHe+8x3effddQqEQx48fZ2hoyLuPH1KJckgH3CnwDzS9M0ndGmIy1Wb0+tqN1JupTLaOimRWKBTA106GNmuVSZuU416ve/39ZKDzEe/maJNVQ00eDWV+LBQKHjnr97tVuG5D4JqmSSwW9QQpBoRCMkl1cXEZGBjk0ccf5aknn+LAgQM4jsNLL7/M888/z9mzZ8luZoEG0UhZXLexvadSKVNX2+6EQHEb/iq243jUfHuG7vcRUiFdZfwLLLVvPaR8WWTifacOQ9Pe5fmu8p4WjTQcDtPS0uL1a2cbDV8fAzK2yuUy6XSG8fHrzM/Pk81lWV5e4uq1a1y4cMHTekvlMnNzcxQLReKJOK7T0LorlQo3Jm7wzjvv8Pbbb5NJN663HYd4vBFWtVZvlDORSNDW1sb8/DwbGxte35NySX2aauIsEwE5L+2vv4elNHh/nf2kD5mUyNgyVZ2bGs8YatmtosI+2yq2Q1hFYpSluZBa6guFQtTrdcrlMpZlUSqVmJub4+zZs1SrVUZHRz2Fw/QpmrcC61987Z9/fWZ2hhs3prBth/b2Tpqbm7l+fZzVlVXSmTSzszPKDd9lYyPN4uIiCwtzbGxmWVtdJbOxSTyeoFqtkclssriwBFjEYlHW1lfY2Mh4GaBefvllXnvtNXp6erwYtjMzM148YiFo/yAT6ALB9a3nSAfXB8Lq6ip/9md/RiaTYe/evXz+85+nt7fXqyi5ThectuadKffeSRDBo9evDr+Q0SHf6fWmCzIRAH64mk8An7HlB3kH/V2kv+rnXC1gjqmlZMzn81y9epVYLEZvby/Nzc1bBOmtw1VrzxahkIXrNDJRSd0DXkyDWCxGU1MzVsginy809msvLVNRjlL9/X2e45DjOA3NWVkAZKIRCoW8vbzS/qg1alRwldulatd1WV1dJZfLeXulhRxR/QZf/d6pQ8oj/7uKXHO5HJubmx5JRyIR5ubmWF1d/cAWLP94cRyHQqHA6uoqc3OzzM3NN5Yg1ZLHqnIezOfzhMNharUa3/3e94jH4hw4cIDe3l7q9ca+7B/84Dneevttxq9fp1QqYZgmLUpDNrUIfHNzjbjslUqFvr4+du3a5Y19QyPeioqpH4/HPxDMRO4l7+Ovq7vtkDLLZ+mz0g6FQoFMJrMlJ4PIJ0Nrp/n5eV588UX6+/s5fvw4PT09lEolxZEL9PT0sG/fPo/8pY7kWbcC62tf++2vLy0tsbS0QigUobWtnXrd4dln/4qrY9eZm5vl7NlzjRmFU2NmZooLF89z4cJ7LC8tcWNygoX5RVKpNvKFIrMzc5w5c45QKEIq1cKZs2eYnZ1hdXWVlZUVXn31VU6fPu3tdTQMg+eee46ZmRlKKkGBkHRMBdJHG+RSqfJZZmtyXmaxdWVCXVpa4s/+7M/o6+vjK1/5Cvv37ycej+NuEUxb17zlO5kk7CRIR5L6lgGqf6+fF21bTEUyg9Y7pK2WNnTztaFmq/IsfZD42/RehqEJBl0o+K8R1FUKRkOFUK1Wq2xubnLt2jU6OjrYt2+fty6rC9JbgeFpDwYGjc9ikYpEGiE2Kyqog2maxGJxhodHKBSK3prl3Gwjqcbx48fp6uokFosrT+/Gb6T8jfGj+gHgauNXnn+7BI0am5lMhkKhQCKR8Cw40n/wTbLvNAwlsGu1Rkz/dDrtJSup1+uev8XCwoKXYKNZJUSR/i/yRtp8eXmZq1evMjZ2lVw+S7FQYDO7ycbmJoVCno2NDS5cvEizinD37W9/m2YVore/v5/19BpvvP4G/8//83/z4osvcuXKFa5evUpzcwuj+0eJK7na8B+yWFhYYGZmho2NDYaGhti3b59Xh1IuQ5nEFxcXiUajpFIpL8CMjH1bmbc/zfr/uHCVxUPGkP7ZMIzG7obpadLpNJbyhdDlWrVaJZfLMT8/z49+9CMGBwc5efIkXV1dbG5usrKyQjweZ3h42Fv3lzpiG7n6YbD+P//0H399fW2ddHqDet0hGo1j1x0uXbrC6L79PPrYI4QsC8OAUqlA3a5RLpeIRiLcf/8potEYhUIRy7IoFcsUCkXW19bp6emnp6eLxcUF0pl1arUax44do1wu47ouzzzzDH19faTTad555x06OjrUwO+ip6eHtrY2Yiq8ppCnVCDazE2+t9UaiaFMhWHliCT71TY2NqhUKhw+fJhkMrnF7ME22rPeOXca5L39dSCEql+HMvPJYSihJeY+f33KfVxt+5DhS5qxE+p8uz4tdSX9Wfp3rVZjbGyM9vZ2BgcHvd9Ifd06lKZjuDT0XjANA8u0vP3ToZDmrWwYmIaFFQoRskKcPXeW3t5ePv/5z/Pkk08qD9cGScpvTEuutxr7qWUC7OiWEilzoxy3+gauEqzpdJrNzU1qytxdUfvvc7kc2WzWWzbbVClk19fXSafTd+RYWVkhm816MQEmJiZ44403+Mu//Etef/11rl69SkVtwapUKhw4cGCLR7q8l7RzNptlcnKSy5cvs7KyzBNPPIGLy+rKCocOHaKnpwfDMLh8+TK9KsrhX/zFX9De3s7x48fp6+vj+vXrvPzyy5x77xz5XJ56vU4ul2dk1wiHlE+IpRz/DMP0crfX63UvEp6MVxmrqAA7Fy5c8OIa1JXD1MbGBpubm2SzWe/I5/PkcjnW19fvaP3fziGacTqdZm1tzcsfn81mWVtb8/pQJpPh0qVLvPLKK/zFX/wFZ86cYX5+3quTkHKUtazGLoi//uu/prOzk4MHDxIKhZifnyetJmRdXV1b5J1fAbmV8Wv99m//k683tNw1HAeaEs0YhsWNiRuM7j/AiRMnKBQLbG5uktlYJxS2CIcNWttaOXbsPmynzno6Q6VcUaYzg0xmk96ePnp6u1heXiazkcZ1XY4dO8ba2hobGxt8/vOfp729nXw+z/j4OOFw2JuZSdrARkfa6hwmL+Uoc6ze0W2lyTUEQQPS8ZeXl1lcXGTfvn3eHj+0SpJn6ERxKxXoh3RovXPrnV2f8bs30ax+0tDf318P8k5S73K9Xuf6e1q+KD5SF3IPuf9OIWh5v5vVrx+W8vO4evUqra2tDAwMbFnr+7Df3hTqJ46jzG7Kwcjw9i+r9nIaQnxjc5OlpSUmJiY4fvw4P/MzP8PoaMNj1fKEjgkYjW1WqkyNiUYj6IlhGI3AJsb7AUxUTdwySaPGaSaTIZ1ObwmSk8vlvHX7dDpNoVCgpOLL53K5O3ZIAJ+CSkUqWfFk/6xESKtUKkQikQ8EMxErkpDe+vo6r776KplMhq6uLk6cPEF6fZ2VlZVGQJuQxeraGosLi+zZ04gt8Nd//dd0dXVx33330dfXz9TUFGfOnuHa1WuUSuXGpLla5cjhw5w6dT/t7Q3Z2phwG8zMzDAzM4Prul6YWn/fMpQJ+OLFi5TLZW9SIWQscRDEGirnhfjuhkPKJdtBZXJVLBY964z4zly/fp2zZ8/y+uuvMz09zebmpsdL7e3tnvk6nU7z13/916RSKYaHhykWi9TrdVpbW9m3b5/nGC28pMs8qdePghmNRHFch4pa9BYtNJ6IE1bxYWOxGPV6jc3NLI5t09rayuDAAC3JJM3NLcRjcTazOSqVamOtTO2LdJyGk0dYeWTWtUxBtm3T3NzM8PAwo6OjrK+v84Mf/IA333yT+fl5j4TFRODvNNLBUcJeKkE6v3jg9fX18Qu/8AuMjo4yOzvL6dOnmZ2d3XIfNG1QHzzy3e1AyixmYLmHqxyqxKziKOesj/OMTwPSkfwDVa8ntMmIq7QcR3nzx2Ixoip7laG0a3lfaS+5v074n2Xo77sdyUrfMTRrkAxsEap1LcyqaNu3DtWmihYbGq7y9LUaYYEdpfGi4uJXa1UmJia4dOkSBw4c4Omnv8RTTz1FMplslH+LVtwgfkdpz5VKgyDCoTDhUNhLWNMoSePfjxZR78NQHtFSF4VCQ3lIa9qyaEtCErp290kfuVzOW45YWGjsjiko72jXdSkWiywvLzMzM0Mmk/H6vnwv8kCseIDnt2OaZkOLdlxKpRIu0NTcTD6XZ2FhgZFdI/T29RFVcbTjiXjDLmE0dk20tbYp5y6VBEYFMIlG3w+mUa/b1OsNeRQKhby8A5Y24ZZ+ijbWxdS7trbG6uoq6+vrbGxseCS4sbHB6uoqS0tLbGxsfKDeflKHlGttbY2MyvO+4cv7Lv2nWCx6HLKxscG1a9cYGxtjfX3dG3/CP/F4nFqtxvz8PFeuXCGRSPDggw96FhPhVVPzA+AWCRrAKJU23HfOvMO775wjFIqyZ9c+WpJt/NWz/5kHH3yYJ598gvHxq7z33ntMT0/Q2d1OS0uc1rZWDh86wMrqMtNTs4TDMZLJNkwjxIXzlzh69CRHjx7irbdfZ3Fxnmg0ys/+7M/y/PPP8+qrr/Jbv/Vb9PX1UVXJFXK5HIuLi7zyyiscOXKEp556yotAheos8oKmli0HTfgJmaNtYZHPb7/9Ni+99BKXL1/mZ37mZ/ilX/olL56qDhk8plobvV1Iw6E1ggxKW8t9K5Dy3otwteQZIeXFLXWuE5C0m7TdrXbOnQi9T8vntbU1vv3tbzM8PMxDDz3krY/dWl0KiavJIg3N1lUkbZqNvdPi1S3PBJd8vszFS5d5/vkfcv36OD//8z/P4cOH6OvtI56IY5oW4FKv21hWYw3ae45MopVm7fUFRc1S6o8qvQ6555UrV5iYmKCjo4O2tjaSyaQ3mUGNd5lM6uPxk4aMaZE/lmUxPT3NhQsXOHfuHG1tbRw4cIA9e/Z465u/+Iu/SHd3t/d7/SgWi1y7do3f/d3f5fjx43zpS08rq8E6juNw//3388477/DumTM89dRTHNi/H9ux+Xf/9t8RjUU5duwET/zU45TLZS5evMhf/OVfcP3adarVKocOH+ZnvvxlnnjiiYYWaBoqumSIH/7wBV555RUGBgZ46KGHOHbs2Jb+hxrP2WyWV155hXA4TG9vr7dsKONf6t/xOZ5+dB/99CDvJG0n/aZSqXiEapom4+PjnDt3jgsXLjA4OMjx48cZGRmho6ODZDLpWWLHx8f5H//H/5GMckx++umnOXnyJLt27cJUiqmttsyZGofdTr1Y/+Sf/b+/vrK8wtraOpYZoq2tg3gsztTUDH29/QwM9rO5mSWTSVMo5Ek0xSlXSmxuZCiWGl6I5XKF/v5BOto7sawQE+OT1Gs2xVKB6ZkparUqra2tDA8Ps7i4yNLSEqlUyquozc1Nz8wwOztLZ2cng4ODHwjgvt0LSqXrnUrvLK7rElWpEU3T5Ac/+AHJZHJLNhrHZ4KWe8h9bhWupoEbPvO8/r/zGcq9KnWnvyvaxMlVk57trgnwQej9UOqrVCoxNjZGKpWiv7+fkLYl5uNAxpGE7BTKNJTHtQvkcnkmJyf57ve+x+rqOiMjw3z+80/R19uLFQoRjkQwza3LOI7T8ByX5DSWZYGXrhZQKW0b76iNZX8BPwSu67KwsMDq6iojIyP09/fT2dlJMpmkpaWFpqYmmpqaaGlp8ZJw3MkjHo/T0tJCMpkkoRJaJBIJent7uf/++3nooYcYHh5uLBdmMhw+fNjbfyxtKOOkUqmwvr7O5cuXSSQSxOMx5ufnsG2baCzG8vISa2trtDQ388ADD9De3ka1Um1o6U4jkNTu3btJJpOqPpIMDAywf/9+Hn30EQ4ePOglZmkcDcexsbExJicnOXToEIODg16Ocr0vGsq5anp6mng8Tnd3N93d3d4kSeo+kUhsqf9Pow1u55Cy+o/m5uYt/4fDYRKJBP39/Tz88MM89NBD9Pf3e1vphHRzuRxvvfUW4XCYvXv38sgjjzAwMLAl/gdq26Ben9yGJm0WlXmmUckJLMvCBW+WVC41MqAkEgna2hu5cYuFPFevjvHyyy9z/vwFz17f1dVJS0sLpXKZd999l+9977tM3pjEMAza2tqoVCqkUil6e3t58803uXjxIouLi3znO9/hT/7kT3jxxRdpa2uju7t7iycwmmDx/y0dCJ8HuMzs5Jru7m727dtHKBQinU4zPz/vmWfFAUVM1CIEPw4cbaO/Xl407dLWvPzudfjJ4n0B8H6HFG/7W+2UOx3+/mMoLc1VlovbN3O/D0Nts6rXVYpXT6/eivn5BV599VX+7M++STgc4hd/8Rfp6OggEo2RSDQp7bvhdBYJR7Btm2KxhOMF72gEwJDc1bZdV3npG3AcB1sFVLlVSD2UVYTEWCzmbcGSviXXfNwJzO3AUPEYTKUx1Wo12traOHr0KE8++ST33Xcf7e3thFSKW3GEras9tX55Jdckk0nW19d59913uXb9OuvpNOtra3zve8/iOA4/+7M/y9DQELFoDCsUoqe315Nr5UrDMbe1tZUv//RP8xv/9X/Nb/7mb/LFL3yR/oF+bKex0yIcaixL1uuNHQSu69Lf308ymfQsknLIeLZt2zNfyy4AsVigKSmNSdnd6W+jc4Y+SZLlJeGN1tZWtbzzNEeOHCEej4PaQppIJDA1a248HueBBx7g537u5zhw4IAXrEmsLCFlOZVn68etwPr/ff1ffL2luYXe3j4GB4fo6ekjlWylo6ODocFh2trbaGqK097eQVtbkrX1VcBmYHCAJ594gvsfeEC5/g/Q3NRCU1Mzvb19HDt2nPvvP8WJkyc4fPggQ0NDtLW10dbWxvDwMEeOHGHPnj10dXUxMjLCiRMnOHnyJAcPHmRkZMTzQMSnlTlKC5XP/gEqh/yNlr+zqgKfu0rY7dmzh0RCTUy0htOfpd/voyDXClHLPaVB5RoRIPL9rd7/boNedr3DyXnpiNJOH3fis9Mgg1/6YkXtTw2HwzSrbTfhm+w3vxU0In01HMZq1RrlSqUhsIxGiODx8XF+9KMXOX/+PE88+RRf/OIXVfKARn5v13Upl0u4bkNIy5g0TYNCoeitT4bDEUzT8kzhornD+xPVUOh2PdQbJsb5+Xkv3CLaxObDZMKdOKSPG5q/hoxvQxFbWeUNyGQy7N69e8vWMbmHLBvF43GSyaS31Le6tkYq2cKePXt48MEHOXLkiEf8lmURjURoaW5mZXWV5aUlDuw/QCLRSHdaU+vNptlIF2qpjGSiINRrjdSTs7ONTFgPPvigFxlLJ2f5XC6XmZqaIqEyPun9UK+LT6PeP86BT5HTP+ObHIvsl8Al8p2hccTKygrz8/M0Nzdz8OBBhoeHPedn+b0+0XG1XRsCvWw3g/W1r/3zr8fiMVItrTS3JIlG44TDEVKpNppbmgmHIRoN09zcRDwWY2MjTSKRYGhwkCNHjzA40E9bWzuWFSIUChOLJWhv66C7u4euri46u9pJJhsRdxoBEppoa2ujo6ODZmUu6ujooLe3l97eXs/zWoQB2nq0rdZ05W/UTA5FEnrHwkea8pt8Ps/c3Bxzc3McO3bM65TyHDlEUMo9bxVSLn3wShnYhqRv9/53G6TzSR3r5/TOrguvAB8Ovd8bysy4vt5Yl7RU7t+Iijv/cftOo1+a1Os16nWbSKThU5DJZHjppZe4ePEC9brNM888w5Ej93mWNbw1R1flnX9/rJXLFW7cuMH6+jr1uk0ymfTIqPEu3tOp1xvadSgU9u5xK3Bdlxs3brC8vOxtp5SxLWPt0+xn+nNFeEubyDgQp6JMJsOuXbtoaWnx2g9Vn3VfAgeAQqGAXa8zPDzEwYMH2b9/Px0dHY3EKFYjNrppmiQSCfIqPWwylSQRj9Ok8pKbupOm2p9eVQFpKpUq4+PjlEolurq6vCVAvfy6TJXJRiKR8JYYpE+gyTw/+d1N0GWu3nZoVlB5bzkMbVtpTcUu2NjYYHFxkc3NTXbv3s3w8LDXbvL++u/l2TK2Bbci/81qrYYjG6zV9gjDMEgkwoRCYNuogPqQSMTZvWc3o6P7GBoaJBaNYtB4gXK5Qr1WxzAgEmkMyGq1SqXciFmr75s11MZ4VyUR0DuCzOIEUplCmg0B8f4sBa1y5XodpvI0jkQixGIx9u3bR61W4/z586TT6S1OJn4i8VfoR0EnJXHRl7LJBEMaSsrvL++9CH/nk79l1tjwMr19J7ydCl2wotazOjo6MAyD9fV1r16lP90uGnujG2PdNEwsq9EPK5UqS0uLvPLKy2xubnDw4AH27dvnaXWmZ8FqmPhCatuQYRjYtkM2m+W9984xPj5ONpvFcZTAU1u6tsLdzsr+oZA+ZZomERX3WkyU+t9+mXEnD7aZeIsMsJRXr6xf6nJAv1bug9bWjcmNyaHDjdj3e/ftJdHU0MCj0RgRlXqyqtK67h8d5eSpUywtLrG+niYSjRJPJIhIdDHHbRxKY6xWq5TKJTY2GikqDx486JnuLRXkxq/1mSp0ZsgXYwJtzOvHp1H/t3voZfbLX2kzec+ICj0r9ZDL5UirYDWXL19mbm4O13UZGRmht7eXaDTqadw610n94FselH7wUTAjkTAYBrV6Y13WME2skEWt6uI6jSQbhso/CwZtrY2cs6lUK7bjUqlWqds28Vi0kX2lMfywTIhGG8QYjze2cxUKBSqVCoZay6nX6+RyOa+Tu5q2LBWG5i0og1OfsRrKFFFVGUgEUik6LJXcPqHCkcreRpk9oTpwQcVI1gXlrUIaVMqKMrf7JwD+Tn4vQtoLVbeGZtKRczLgpeMG+Gj4+4alEmuEQiEKhYLXt7fr47cDV5FCw5HJ5fLlS7z00kvE4wkeeeRRfvrLP0MymQTAcVwKxSK2ih5nGI3AJaZpqf2xRbLZTS5cuMDy8jJRFevYsixc3h/XgvcnIlqBPgK2cjI1TdMjMqknkRHynEqlQrFY9ATznTzq9TqlUolSqYStRd2TclQqFVy1zUmUEMdxKKs895aKfW8oq0mpVPK2Nw0ODNLW3kat2sgdXSgWyOdz2BJyNBqlVquRSDQxODhAV1cXpVKRyRs3yGZz1H2JWAxV93Nzc1y8cJHW1pSXFVDkKL7xLPUrclLOS11LHUubSrsLCd4tB1qSDPFDkneQ90BT9AzFU2tra7z88sv8r//r/8q/+Tf/hrfffpu1tTU6Ozs5dOgQrutSKBSoVqtEVWxvfbIonCD3vF1eMS3jfQ9MvFmhrFuBaWokbTQcyJqaGmZqy2wE7DUNg5DSiB2nkQELAyzLIBRqzEq8Aatpw+8/7/01Zh3yknL+/YG9teL1jqQLLv2z3COpNqQnEgnW19fZVDF25bdyoJ53uzBN08uKYmsOGHqn19//XocQstSVXueoQTE7O6t2AbzvLBNge+hCT2BZlmdaFCc8/zW3isZGq/fHt0sjW93U1CRvvPEGr736GuFwmI6ODhLxOEtLS0xO3mBy8gbTU1NMTU0xOXmDiYkJpqammJmZYXxigpdffpnvfve7XL58mVKpRLOKL24ajbCgEhNcYJpmYz36Nny76/U66XQa0zTp7u72rDP6uNUFrPRJXV58koc8+6OeIcRsbGM90z87mkUwlUoxMDBAZ1cniXgCwzAaoVVVlDBDe0fDNIhEwrQ0tzAwMEAqlVLPbpCylMN1GwlOTMskHInQ3NzMwOCgFw/e8cUy0OWf/p3tCwOqy0x5H38d3A2HXi69rPjaUf4WWeVqke5KpRLhcJienh5veVa3EsoETeS9zi16Wfz1+2Gwvva1f/5127EbgUfCEc001SBrFQsf120M7EgkRMhqOIlYlkXIsrDMEAYmrtuYcddrTsOMpsouhRKzT115N4bDYW8blDS6FF4qS17Sf16vbPlbf5b/u7qWuHtqaor5+XmSySTd3d309fV5DSLP0ScDtwp5tsTCTSaTRFXGGEMjaH0gyO/uVTi+pQe9s9vKG/Ttt9+mXC579WEFDmTbQhcM/gFsKEeVjY0Ndu3aRVwF/Pdf9+FQwrQxmDENg1q1ysrqCq+88jLPPvss7545w/79+0kmk+TzBcYnJrhxY5Lp6WmWlpaZmZlmfGKCqclJz7dj/Po1/vTPvskf/dEfUalUOHXqFI8++gjNzS1qYg627TRkhsozrY/TW+39ZeW45Lpuw9+ls5OwyrLnlxFiAr+TY0vaS7RHIWOBqcym0WiU+fl5VlZWGB0dpaWlxRPkoriIWdVQ2ptElxMns0gkggtEVGASwyMAm0i4keTEdV0vb3tLSwuxeNwba4ZhYDs29VpDc29tbWVwcJCOjk5isZhXBmkXS9OE0SyMU1NThEIhUqmUt0XWD+nDd7LuPw6kX0jd6+NHSNTUFEZbWQAjkQhNTU24rsvBgwc5fvy45w9h27ZnKTa20ZKFv0K+LVh6//8oWF/72m9/HVwMTCwzhG271OsOltUg3braKWQYYFpmI1e0Y2M7Nm4jvC8NR5BG5CLLagRuF663HQfbfn/mL4XTzT5yDjVbRlsvkO/0yqzVao1rDAPbcdSaecP0ZgjxYYDK8mOYBphGI3CDCdeuXubK2FWKxTLDw7vYf+AAjm1jmSgv1EbIu0ql2gh7eAsViWqQUqnEc889x3e+8x2vcZPJpNfwrjJ76e93Kw11N0JvH7TBKe9WUinb/uqv/grbtunv7/cEVIDtIYLa3y9c1/ViUvf19XnC+3bgioDAwDAb0cLm5ud48803+eNvfIPz58+Ty+ZYXV3l0sVLvP32ad55913OnDnLmTNnOPPuGd498y5n332Xd8+c5d133uH0O6c5c+Ys09PTuK5Le3s7jzzyCA899BDhcMQzZzeSOWhmOaMxRm+n55dKJS5fvoxlWfT09NDSIpOA96Pd4ZvA63V5pw60vu/6Jql1tWY/MzPD2toaBw8epMW3D1nuo5O26a27N3IQ2LZNSJbMjK311pBx7wdfMkwT0zCo1+oNC4Z3zmzEVjfN9+WkrFdr5nghMFezThjKFD83N0csFqOrq4tUKuUpXnpd+EnobjmkbNtNInQeMjTHV0MRu7zzyMiINzk01SRMf4ZuQhe5iCYTXRU3Qs7dCkwwMYwQptVYfDaEkE0wTDAMNaDUObWqAZgYmIClPjcuapC5XPu+uUUgFaETlZz3z0L06/33aMDFxMEyVGAGTwgY4IDhmJiu2TC3GS5myCEUqhOP1DENh7n5ZZbTNWzHwHUNcB0MGh0eM6Re4nbESKNsTU1NtLa2bunodc2ZwNQmHf73vddgqomWboKVw1LZY/bu3Ut/f7+3v3CnQmbVMlnbDjKQbZ/Tjuu6JJNJurq6vBCGUuf6oV8vfzdC9DYOMDCMxgS8XK6wvpZmaXGJcqVGd3cv+/cfIplsw7Zdstkc1UqNeq2OXatTr9Ww67a6l03dtrHrdXBduru6OHTwEIcOHaK7q1uN2UZZDO8fbTSJVUkzmYqAk3LXVfIMRzlISWRCgGYVnMjVHLXkaNx++/q9k7jZM0Vo4xPW+vWmT3u11Dp1Q05aXuARiasu7WiajSUDy7QIhcKNc961jWuE0g1DtmGpGOqmFkdd0zK3k0lSPrlWL68OfzvcTfiwMunl1t/PUubrpqYmRkZG6OtrpGiV76W+5Df+95fz/mfdDoxSqaB6iqEPoY+Aqw4dt/P7TwpO43BdMExcLBzAct//Cgts06GKTZgyplPmr/7iT/mjP3mO8elN/otf+y1+8zd+gRB1oqEKphXBtcI46m1un6ZhfX2dTCbjRd5JJBKUtdjoIlz4GA12N0IcMXQSlvfThah04p0I10e8MiGV+tDrS4S6mGsd5WRULpfJZDJcvXqVvr4+RkdHt+zL1OtXJy6dJMLhhlCp1+tsbGxw6dIlLly4yPLKEiHLIh5PYBiQzeUoFkteHIFbQTgcoauzkyNHj3L48KGGpms2NEPbed/cjVjYFCmL9qaPEUNZYqrVKolEgmKxyPz8PKdPn2Z0dJT777+fiMplbauwi/5351MYX3o965/176vVKq+99hrXr1/nq1/9Kp2dnVvuoV9/p8v742BjY4MXXniBZDLJ6OgofX19hFW2Qel/fkIK8OPDKJVKfra9h+CAazf+NyxcQthAyAVsdYSgbjlUqBOhRNgt8P2/+FP+/R+/wOXxLL/4q/+Yf/Df/DxNEYd4qAShKI4R+lgkLQOyWCxSq9W8/ZBCyiKIpSP7B/S9BldLZCIzS0dbg6mo7ESrq6s0NTXR0dHRcDi8RaH/WYNfexLhhuoL0k+kDoWERPiXSiVWV1c5d+4cfX193r5WXfuR/11NMxVB6vrMkDWVIW5zc5NisYipme/E+/V213Udx6G9vd3zRtdNvkLGUhapi7ryF4loOzf8E5rr168zMTFBLBZj9+7djIyMYPpiI6NNdj6tsRWQdEDSdxo7r0a1QVSrVSmVypTLipLFXL6NneBWUa/XGR8f59VXX2V6epp8Po/j8+7zmzLvdZi+ZCRSv9VqleXlZX7wgx/w7rvvsrGxgf0ZCYd6OxAh5idJgS7Y5XvTl0TGVWuGTU1NpFIparUay8vL3lqsbvqW+2xHzK7mnRsKhWhvb2f37t0cOnSI/fv3s2fPHvbs2cOBAwc4cuQIBw4cuOVjdHSUXbt20dbWtkV4uzcJ2mNo+1Lle70eUCRXV1s1c7kc/f39dHR0eBMa/Vr9eQECfFawo0haDX81qF0qlRqlYpFisdQ4ZzayCzhq0//tQoTiW2+9xR/8wR/w+uuvs7CwgG3bnjAV4SLC816H+BaIgDSUxiSEIBmcXn/9dW9b2k6D1I1udhbilHUtnaxkLUyfzMme32Qyya5du7Btm4mJCU/j1bdmCeRe+rNcpWFXq1XqmgOL3o7SN+W3twpThbUUgra1tJtyf1R9SJlQ8ZDFw1j6kKUCpRSLRfL5PBUVulSyL8m18ly5r5C0Xg8BAtzL2FEk3cD7M/RqpUKxVKJcKqkB3yBv1739aEgoYRGNRnnooYf4lV/5lQ/E2RVtQbTOmpZO816EoTQfXWCKcHZdl0QiweHDh/ln/+yf8cu//MuMjIzctkfyZwGiDdZ9AV10otLR2FnQSJ1XLBaZnZ3l8uXLXLlyhampKQqFAuvr60xOTjI7O+vt3RQNWSATACEu6XuRSIRoNOr1Q5lEbmfhEcK7lcPRgndUVURBfaLgh6uZ5NG0f0eZ+MMqqtabb75JuVzm2LFjxFQWIlcLmiPjSg753r2Hx1aAAIIPSojPMJThsCEEbJtardpwyFGZY7zrXFdFWLt9hEIh9u7dy+OPP+6ljfMLKtFYdIF9r0IXjCJkRWM0TZNkMsnx48fZtWuXlwVoJ0EnMb2u5DtbrdkKWfmvq9VqrK2t8dxzz/HNb36TP/uzP+M73/kOV69epVarMTU1RTqd9iaCaFHv/ESll0P6o95eqL4pbfRx+qf+PJ08HS08rl627epH7lGtVslmsywvLxMKhejv7/eIW79e/41MhlHl18sTIMC9iJ0lMQHXaQiKum1Tt+vUalVv1q9dpX2+PbiuS0tLC319fbS3t3tZVHTh4RdO9zJESPpNjnWVuq9SqZDJZLyc4R9H8N+rkLpwlUapEymahl2tNvqgWFZE2xVC29zc5Lvf/S6/93u/x//+v//v/J//5//JpUuXaG1tZWpqiuXlZVBmY0P5POj310lfnwxI+aRNRPP2k7ROhh91yD10E7erNGZda5Z+L+WSOpK/AY+gwyr7lyR/kDLLmHJ9WrXc514fWwECsNNI2sVtkHO9seezIaS2czb5oGnuVuCq3Mk/+MEP+N/+t/+NV155hYWFBU8Ii3Csqvi44vl9L8MvCE0VhCEcDlOpVLh+/Tr/1//1f/GXf/mXLC0tUVOBaHYSLC2esZCH9AVL7YeVWNe6Wdy2bTKZDOvr617wiFQqxS/+4i/y1a9+lYcffpi9e/dSqVQYHx/3TOQyETDU5ElIzdDWh3VSlfby90WdMG8FhubB7Z+0CQn7JwFSXjknJLyxscH09DTLy8scP36ckZERj4hlIqDX5XZLCVLfAQLcy7i3GeJjwFbrbzXNycY/4TYMFfT2Y+jUjtrTms1mKZVKWzQZeTY+s9y9CtGQhADQNBkRvpFIhLa2NpLJ5I4LZiLtLvUhpCKHfCeEI+bgdDrNjRs3uHLlCmtraySTSR599FEeeughjh49ype+9CXuv/9+hoeHGR0dJRQKMT09zcrKCqVSCdPn+axrsDpB6pqylM9f9tslOfmNf/Km14V+X/8zXNelXC4zOTnJ5uZmI760iketX68/R+pSh/++AQJ8PLh3+PjgGf+xcyQmNLLxKC26VnufpLeOZSVIAKfx9W3BNE1vTXpoaIiWlhbCKsGIq7Ro0arudbhazGHRlHQBHY/H2b17N3//7/99/vbf/tsMDw/vOMcxP/mJhiyEZWoZkYrFIuVymbm5Oc6cOcPrr79OJpPhwIEDPPPMMzzzzDN84Qtf4KGHHmJwcJDm5mYvFvTa2ho3btwgnU57kyd5vu3LQOXeJEnCdrjZ+Q+DECfaBMDfN+Q7//X1ep1sNsv169dxXZd9+/Z5e+tlMuOHoWnw+O4XIMDdjFvppTuMpBuB/uu20ixcNeMWQeq6uK7yUuaDGvZHwVDB8ffu3csjjzziJXgXMjPVFhVdA7iXIe+LcvLR30e0a4l5m0gkqPu2CO00+InLUEFDVlZWuHLlCq+88gr/+T//ZxYWFti7dy9f/vKXeeihh+jp6aGvr4/HHnuMZ555hs7OTo98bdtm165dHD9+nPn5eebn56lWq1s0Vt2T29W8vIXY5DodYvURAr/VYzu4qv/rXt/yvFqttmUpaG5ujqtXr9Lb28vQ0BCpVMpba0dbZ5eyCeQdXM26EyDAjwfpz+4dOVx17w9+s/XYERHHbBVxzCRPKbPIN//oD/n9f/d9xm4U+Fu/8A/4h//tr3Ds0ADNiTpg4Zhh6qqGQuaPP5MRwWFq64Ui0PzC8V6EkIVfmMpn0eqMe3ydUMhFiEvXDv2mYz+kvV2lxRaLRbLZLJlMhlwu54XAdByH3t5elaGoY4sFRu5taVG75J75fJ6zZ8/iui4dHR0MDw97Gqh+vfQ/aQO9H8pnNHO43l7+Zwox6u15s/rRJ3ESxUzqQki3UCh4iSj27NlDV1eXF7VPniHlQjPd+59la9n07iRcbV/3dnUg5SkWi7zyyitcuXKFp556itbW1i330X/7aUKee6vP39zc5O2336anp4cjR44wMDBAJBLx+oXhcyDlNu79aUD6Br5xKv1HPousNk0D266rxEzq+8ZFYBi4roPrKmuZeoa/PziqbvRrXFxcx8V23UbmSBVdPRQKeXHWHVfdB2OnkLTbIGk3R251jj/6g9/lX/3hd5lfNfjqL//3/NZv/hpHD/TRlKiDEcLFogYYDlifAEkHuHshwsQPv3ARQWRqoShlUiIDWwSV7hyl/xY1oSmVSiwsLDA+Ps7CwgLxeJyRkRH27t1LV1fXbS0JOFqQFMMweOuttxgbG+Oxxx6jq6uLWCxGIpHwyDAajXplk3eUcuvkqn8v18ihT0h0YSeQ8ujmabm/lFMn1UKhQCaTYXJykkqlQlNTEwcOHCCZTBJWqSjvRki7G77Jpy7oXTWBeuWVVzh79qxnvr8bsF3bfRhKpRLj4+Ps3buX+++/n6GhoQ8EoZH7+SdqdwMctY9fyhXWYgtI+zkqjGtjiTJEpVomZFmEI2EMGsTsqPFi1xvZICORRopn13WoacqYgfIHcWwi4bAidhfXcRoWXcehbjeI3jBNYrEYltlICOVNNA1zZ5G04WTJLE3xR7//u/zev3mWpXSIX/iVf8w/+u9+lSP7A5LeqdAJaDvBpX/vF0KuIl8576rZuqyhyvey33l2dpbFxUXK5TLNzc10d3fT3d1NS0sL8Xj8tveSy/McpfVubm6ysLDA1atXaW9vZ8+ePfT09BBW+4trtRohtcULVS5bhQjdTqBup3mgTW5EQEt9oJwiReiJEBTCEoh2n8vlmJiYYGZmhlgsxuDgIENDQ1tikguZs83k6ScNeXfHl89at3w4jsP09DSzs7O33b53ElK3t4r/f3tvGiTZdd35/d7LfavMrH3t6q260VXdbIAgAVISKA6DlDgRFGnJmpBtaTQxnhmPIyZiHGHLDkdYH/R5vo5kh21pRkNPDC2LMfaMRA0AkQQJgmiCALob6LWquqpr3ysr9+1t/vDueXUrWQ0CBED2kv+IV5X53su33HvPOfecexYRcoODg4yPj5NMJoP98q7yvjpdfJB7fJzwNIuOpyZPW1tb7O3tYSqhnU6nOXXqlKIXh0g0jG21sR2XZDKBaRp+RkrPw7LaOI5LIhHHNPz3tmwr0K6jaoLp4WEaJq12m1arjQFEohHCEb9GuOP6z2aGTFzHwXH8RD7Sdk+UkMYpsbs6z9f/zz/mf//Xf8N+Jc5v/+5/zz//b3+X6amhI0LaBvAgZHSF9OMOIVqvI6GGMF/Zp29oDNpTwluYr5j3halVKhWKxSL7+/tUq1UcxyGZTDI4OMjw8HCw7oom7N8v5P7CFIX53LhxA4BMJkM8Hqevr49cLndE6OpmcFmz1t9P2kB/b7lP5znyHLLf0ASU3q6CVqtFtVpldXU1yOk+ODjIyMgI/f39R5aFdCGgX+NhgVhWQlpWQd3/IhKJUK1Wg75/VCFjJpVKkUqlgv7V+weNnvR9DwM8NaFtt9tBBbhms4mpIizq9Tqu6zI1NcXw8DCZTBrD8FRNbk+Z9sHzXEKhMCvLy+zt7TE9M0MqmfRLwkoOAlSAkGFgGgahcDjwv0CZtsORKKYZwnL8ybPj2BwUizQbTcbHx4nFY+A9MWvSvpB27QM2Fu/w9f/jX/KnX3+RUiPD7/z9P+Cf/7e/y1NnB0kmrCNC2lCedQ/PMOvi44Iu6FAapKXyYpsq9jusqjqJQDY0E64waRF89XqdSqXCwcFBoD07jsPk5CTnzp1jaGiIWCyGp5lMRVC+X8hv5XnaWkKUZDLJ+vo6i4uL7O7ucuLECc6dO0cqlQqYRTgcJhaLBVq1rRyu9OfQhbMITNl/nND0lJOYZVmBNUGuJ793XTewKszNzXHixAlmZmbIZrO4StuPx+OEVFU1ydv9QZYBfp6Qd9InaigrhSwxSDvpY+xhwAd5HhkLnX2uQ6ejh0lA6ygUCty7d49vfetbTExM8MwzzxCLxbh//z6Li4skk0k++clPMjNzgUqlQjwRI6XKDbct328kmUjyt9/+Nu+8c53f+73fY2RkFNMwsFXkhue6VGs1pTVHSadSuJ7v9Giq8q2uMnO3bcefzJcrLC4uUiwV+ZVf/mXy+V7MkEnoD//wD/+o8yUeHXiHm+GLU0+EqhwywTPBwcW1G+xvrXH1x1d4+/oCDkkuf/IFPvPpp+nLJ4hE3CPXESH94CHZxeMAER6eNvuXLXRMIhIRyiKkdCEmZu3Z2Vlu3brF3t4e8XickydPMj09zcmTJ8lms4EpV67haQ5P78UEdci95TemltVMTNjJZJJwOMzOzg737t3D8zwSiUSw3mt0VGWT73I9XSjrbSPf0dpPJjaGYRBVZSeFURuGQblcZnV1ldnZWVZWVmg0GkHZyVwuR1gtD3TeU+7hPWRrnKjn0ttFh+yTvpWJnLzXw7LRIYAftNFhPdL3H4f3OvaLgPTDwsICd+7cIRwOc/78eS5cuEBvby99fX3E43G+973v0Wg0iEYjzM7OYhgGyVSK1ZUVVldWWVlZYW19jR+8+ipv/OgN6o06rWaTaq3KK698l/n5OVZWV3j9h1dYXVvDstrkcjnu3LnDlStXiEajRKMRWq02P/7xj9nd26NcLvP666/z5o9/zOzcLI1Gg3A4TCadebKURGGiVruN40AopNIXal7JXTx5EMEgzAfNtCdCT8ZHp4BCaaCVSoWVlRXu3LnDwsICtVqNTCZDf38/Y2NjTE5OMj4+Hghoua9cUxiI7Psg0IUAypQGEI/Hg/sPDw8Tj8fZ3Nxkfn6e+fl5Njc3qVarP3HPTlrQ26STaQv0/aaWRcx13cCsff/+fdbX16nX68TjcQYHBzlx4kSQqMRVZlOZwMh9pf1FeD9M0NtG+kF3ItTHS2ebPQzwtKWe97t1wnsA/TysKBQKbG5u0tfXx9DQENlslkwmw8DAAAMDAzQaDba3t1leXmZh8R77+7s4jkWtXmN7Z4uNzQ1/8h6NYIb8sNp4Io7jOMzPz7O8vEyjXiffm6NUPOD6tesUS0W2t7dZvL/IfmGfZrNBs9lgbn6e7e1tf7yETAylFKQzGWLxOGbIfAKFtG37i/suRCMRYtEY0WgE03x4B1UXHy8exISEserHRIiEVXWpVqtFrVZjc3OTO3fu8Oabb3L//n1yuRy/9Eu/xGc/+1kuXLgQ1EC2Va7u4wTOcQzwvSDMUQRDs9kM1sNFq04kEgwNDXH58mWee+45Wq0Wt27d4vXXX+fGjRtsbm7SUmUuHc0BTSYOaALoQdAFs2jnYlKv1Wrs7u5y69Yt7t27R7lcZnh4mAsXLjAzM0M+nwflOSyWhEhHacuQWkbo1FR/0ZD2l7bxlJC2tPhyQ032fG9h5Uh0jOD7RW0iXN/vJn0tkw+5jq2ls31YJyRCuxJN0NPTQzqdDsa6p0IUs9ksnuext7/P3t4e9Xrdt6qaBo1Gg0ajzrlzU0xPX+DChaf4whe+wLPPPsvQ0CCO4xCNRjh56iRf++rX6Ovv4+atGxwcFGhbLVzHodXy6dS2bfYL+7Qti96+Pj7xiU/wzCef4fLTT/O5z32OqakpEvHkkyWkwcN1XDzXwzAhEo0Ri8eJxaJHso55apPPXTy+8DTBKx6VrloXFc9nYTqG0uZarRalUomFhQXeeustrly5wtbWFkNDQ3z+85/nC1/4AmfPniUcDtNqtQITsKnWtmW9FaU9orRfPTzq/UAEgDx7IpHANE0slXpWmLAI7Gw2y2c+8xm+8IUv8OlPfxqAd999l7/+67/mtddeC4Sons5W1wQfxOBlktBqtdjb2+P+/fu88847vPTSS7z44otcvXqVZDLJzMwMn/3sZzl16lQQK1woFLAsK/DmlraX9xNmL5OAh4n56+0j40j64zh0tufDsMnzvt9N+sDQln504SzH5djDiGg0SiKRCPrJtm0ajQae5xGPx4nFYiQSCRLxOImELx9C4TCGefjexWKRdrtNPB4jlUpiGNBo1LEti4GBAaampvDwCIdDJJNJiqWib7XC9/mIRqNEY/6SkGEaYBi4nu+clk6nMUwDx3OxXPtJE9KoAHQPw4BYNEo8HiMaDR8V0qqcdFdAP97wNBNzp3YgMLSBYVkWhUKBpaUlZmdnWV5eplarkUgkArPyiRMnGB0dDTy2w5rpVp8QyL3oCOPR7/1+Ie8hGrHRsUYqzDIajTI4OMjY2BhjY2OMj48zODhIOp3Gtm329va4d+8eN2/e5OrVq7z55pvcuHGD27dvc/fuXebn57l37x4LCwvMzc1x584dbty4EZz71ltvMTc3x9raGgcHBxiGQTqdpr+/n5GREUZHRxkcHKSnpydIUCLMX5+c6EJE2kifHDxMkOeWvpXJhOwTYdU5ph7lDS2qQNpApx853vnev2h4SuNPpVLkcjn29vYolUqg3kHqtIfDYXp6esjmcoRM33nRstpUK1Vs2w7o2nVd2i1/Ag5+NkvHFWtQlFDIHwuhUJiQshBFlROhTGoty6LZbNFqNokqK1RLZeBDyaknT0ir/6bhe91FozEiYQ6FtCfE1ZXSjzuEaPUZvzAVQysvKgKwUqmwurrK3bt3uXnzJoVCgd7eXi5fvszMzAwjIyOBJ69PqBGSySQRlTXsOMZmaIVXLOWZ/X7haWug7XabarWKZVmBo5tc31Jexvq9U6kU09PTvPDCC3z+85/n1KlTWJbF/Pw8b775Jq+88govv/wyr776Kq+//jpvvPEGb731FlevXuXatWu8/fbb/PjHP+a1117jlVde4W//9m955ZVXmJ2dpVQqkUgkuHTpEi+88AIvvPACJ0+eJJ1OB8/gqYlRLpcjkUjgqDV1Q1uT1iEa28MIvW91QdZ5TL4/TNvPAldZTzzVh2HNCiXwHkJN2lM+SdlsluHhYZaWloIqha7rsrW1xb1794jFYgwMDNDX14fredTrNQ4OCuzsbNNoNEgmE+RyOUKhELV6lUqlqkKrDMAPgdzf38O2HcAgHA7R05Mln8+TSWeCELD9/X3q9Tr1apV6o0EikcB2HAp7+9RqNRzHIWyEH4cQLFcLwQodDcFy/RAs1/Ro4dJu7HLz6uv8X3/6x/zl/3eFofHL/MN/+r/w3/zD3yAdh1CoBV4YyzVwDdOPkX4SZzJPCISRHM6EDwtRyPphs9lkY2ODlZUVdnd3SSaT9PX1BZW9UqkU8Xj8iHYsTFmYoAhMnSm6ygxtaFo2mmb2fiBMRyYFtm2rmbs/+xeB4aosSo6Kz5Z9pjLt21rtb5ndyz75na2tOcpvhTlLeFokEglCumS/eHmjaVfyvPr7y/vIM3e2iXz/IO3z8UM39/qmStQ4cpQndyQSVrG1/vN3Tj5+keicULxfyPjW+08mUIaa3NrKxyH6EJXj9RS9V6tV1tbWuHLlCo1GI/AXEFo6ffo0J0+exDDhL//yL4hGw/T397OxsYFpmoyNjfN3/+6XuXHjBj/84Q/JZHq4dOkifb19/Juv/xsikRinTk2SSCSo1RrEohF+/cu/TrVaY3Z2ltu3bxOPx4nG49y5O8fTzzzLC597gVgsxmuvvcb1q1f55LPP8vQzzzB1ZupRF9IehyqvYgQGmLLLc8A08QwDG6jX9rlx7Yf8m3/1J/y///EHjJ+4zD/6J/8z//U//BqxCIRDLT/W2g3hqnlRN+PYUWGmM0ydaQoD8pR212g0aKmCCjpRx+PxgCg640eF6OW7XFNnJLKfDiYj95B973Ud+S6fXa0ylacYTq1Wo1gsUiwWg9zahmEEGcL6+/uJx+PBb+R59GsKRCAJjnumnwWeamtDMUZ9f+f1Rdh2rnsfd67sl34UAW11VDyTPoypWtiyxveg6+rt3NkmnZA2pWPJ4eHCoZB2XJeYymPtaAlj9A3tvTzANEzAbyeZ+Eib+OPZHzsyeZSJo1xDrml31AV4EC3Ib4WWDW0tXehaoI/fzn7U7y/79Hc2tSQnx1lFftFwHIdqtcrs7Cy7u7s0m81gki2V5Xp7e7GsNq9f+SG2ZRGNRqnX60SiUfr7+7g4c5HdvV0W7i1QrpSZnDxJIhHnT//0T+np6WFmZoZ4PEEykSDfm+fcuXNYbYu19XVmZ+9imiaxeIJyucKp02c4d+4cIdPk7twsiwuLDA0Pceb0GSbGJx5xIS1P3vkGBmDYQBuIAmFcoFopce3aa/z5n/9v/PVff49Tpz7BP/4n/wP/4B/854RMF9NsgxEFTD9VmwvhkK9Nf5R4NBiQDyFq0dJkLUaYdUSlmxRGIhpZoVCgVCpRqVQC5h4Oh+nr6yOZTJJKpYJYXWHuYa3coBC5EL20k9wLzZlIGKOjJRqR38hz6QxQZzqeShVoq7UmT+WSXlhY4P79++zv79Pf38/U1BSnT58mlUodEYhdPMnw6di2LRzXJapowRdOEWzbr1sfMkOEwyHMUAjX8Y+DRzjsjzdHWSrEGgH+RNG/ZpRWq0273SaVSmFooWgyniWmVtb5O2mhU8BaqiKfqZwMj7O+yNKLXE9oTYd+Xf3z44OjSwL6Z3X0iOxZX1/nX/7xH3Pp4kW+8pWv0NPTE7SZoVLF2o5NPHaYGtZ7H1k4HmMh3QJaQBy8KHhQrlZ5+9oP+Nd//r/yN996hafOf5J//I/+Of/V7/42obCLYdh4hAEzUNANwDSOzlw78UGEbmdH/7Tzf54QhtEp0HTiFaFmKnOnaZq0Wi2KxSILCwtsbm5SqVRIpVIkk8mgmID8tlarBRp2s9nk1KlTPPXUU+Tz+SOmMU9pYp3MRtpPGIi0n0waTK0Ahmjqcq6rNIxQhweq53m0Wi02NzdZW1tjb2+PcDhMb28vAwMDZLNZUqkUiUSCSDemvgsFf/w4uO7R+HQPMBVTbltW4DQUCocCXiXneP6FcD0P01BevkGNb3/ZxfP8yWlIJalxjqk4ZyufAxHUQjtCL53n6+cIfemTYpkI+I/3k5YWHQ/a/zhA2u+4753HisUi3/nOd5icnOSZZ54JFAhPpd2VvpM+er94sL3pcYVmhotpdXYPG83zBTRg+CWmA0b+IAizfz/nPeyQ9xDIM+tEKoK0rRwgVlZWWFhYYH9/n0gkEuSkHhoaor+/n+HhYUZGRo5sQ0NDDAwM0Gq1Aq314OAgYCyuZhrVB7R87xTmsl8/X9ZUhYHpxzw12ZCQIfFKtiyLfD7P6OgoJ06c4MSJE0EBjK6A7kKHkqlHhJzryRKcvz+sFRsx0Mao+EA4jr9YJ9YiT+V9NgxM08Cy/LErAtrrKPKia7kyNuUenqalC10LTQndyLN3Qq4h15ZJ8nHbkwT9fTvfPR6P84lPfILJycnAKqfLBGlPafv3iydSk/5Xf/4nvPSffsCnP/U5fv/v/1N+87e+QjjiARauF8LzQj4BAq7jYvCTeXl16IJNJxYdD+qU4879RcFVDkZi1ja0lJFithHCltzUOzs7rKysUCgUGBkZYWpqihMnTmAYhp/rtt0OZo6GYQSCTgbqu+++y40bN0gmk5w+fZrTp08HIUG2bQexv3JvHfpg72xH13VpNpsBE0smkwEjlWvXajWWlpZYW1ujWCySz+c5f/48Z8+ePUJkHLOu3EUXOgPyPA/LtnzrmxLOcoauMRvqs6dozVD+BKJle0pIm4pG6o0mkbC/JCS0KWNTlpF0PwNP3QM1SRWzdVwrKSm/1zVyoSWh0wfRFR0T98cdnTxHoO/XP0v7oXwFpE1lmdDtWMJ7P234RAnpSq3Ktes/5M/+9Z/w0n96lV/65S/xu//lP+I3vvplwhEPjzauK0LawDQ+GiHd2dH6IO889xcNGUT6QNMJ21NCenV1laWlJWq1Gtlslv7+fvL5vO+1qHn0omne8llm9I5yTJIqUevr67TbbT73uc/R09Nz5LfHtVlnu+r7DM28jeqXRqPBwcEBa2tr7OzsUKvVyOfzDAwMkM/nSSaTgXfycYzvYeurLn7ROGRArudiW1otYRmjAJ5H27JwbPsIbdgS0x4K+aZu7YqG+uw6LrZ9NOWrTKA9zYKH5qMh95bxLzQg38V6KL8RetR5nHuMH4enOcXRQYvy+XGmkU5+0/mdjolL53HpL08pPTqPfC8cL3UeUxiGQVjFkKKZoo7isGENwDAO10MfBKPDuUnHcR113OeHBce9hzynoQRfqVSiUChQq9Xo6+sLzNfZbDbweNYZhT6jlPAeTwn7np4eRkdHGR0dpbe3F8/zuHHjRhDu0MkEdOiMQd8cVY5OmJZt26ytrTE3N8f8/DzFYhHTNMnn84yMjATJPSSxh6l51HZe82Hssy5+cRDhZaCEreY74SkegtKMDfOwahqadUYEtAhLSbhER0pUEa62Fu4k93NULL8+MZXxLzxOzpdzZGzLfXXIe3VCaLCTFp8EdL5z53fZ53X48cg+tD4/7rcPwhMnpCWGM3TE8/HwnCPj0gDTPF5w6ZDB33le5yDv/P4wQohTnlX/bqhMOevr6xSLRZLJJBcuXGBsbCxwjEA5qYTUGprE3opG3mq1glm7nBcKhcjlcpw/f54zZ85w7do1Zmdnj3iYdg7492Iitspj3VJ5tff397l9+zY3b95kZWWFVCrFxYsX+dznPsf09DT9/f0BAwwpc6IIaf2awgS76EIgY9AwDMKhEIZac3RdF0/GiqHSvkZjgUB0Pd8rVecXjuNgtdt+6mJtfIdUmU5D89yWe7gqzMnTzN/HwdMSj8h3eRZbOVoKD5PjOoTHhbSiMzJ50PmeTpud13gc0CkHOr+jTbYE0haGloZV2vn94P2f+RjANE0/di2VIB73a/n6jecf9weVIjr1m2P64IED8L0EiP79uOMPA0SIWh0FAuS9XLXOu7i4iOd5nDx5kqhKZCEJPTwtpCmsSiVK1i3T9CvGyHl0DOBkMsno6CjT09OEw2EWFxdptVpHnlGEpQj+znaV+xqGwezsLN/5znd4+eWXsW2bixcv8qUvfYmZmRkGBweJRCK0JQWfWsOr1+vU63XCWh1kVEpNWdfuoguB5HNGsxq1lVe3o2io3WrTVBENobBvjrYtC6t9vFA1TRMj0Mj9fY1Gg9nZWfb394OlGKEFz/OIxWJB/nMdQl8iUA21PiqT6L29Pba3tykUCkc09E5Bogse4QmdW+c9H0Ye91FAf1f5rreBCGK//44uEfwseKI4jmmYJOIxkgk/S5QXCKKjgtMwlNeYgtcx69Q30bjea1B2CpIHHXsYIO8ikNmzYRhUKhW2trZoNpukUin6+voIaWEG+qxariG/RwuTkgEt7eoq05AI9ampKUzTZHFxkXK5HGjU7wXLsiiXyywtLXH79m3u3LnD3t4ekUiE0dFRJicnOXHiBMPDw+RyOaIq8YQ8h3wWDUGe2X3Ael8XXQgcldYVZdY2TdP31lbCdWFhgbdUbvN6zU+KY2gC0BMt2HWCYgu1Wo3CfoF2u01LFXSR5BuGWjZCCQShPREMaBMGWyt+Ua/XOTg4CJZtbNtmf3+f3d1dCoVCUEVNeJ3OC4Rm9WP6ptOnnPs408p7vZvR4cUt39/rN++FJ0pIG6ZBPB4noRyEHG12eHRAHmrQngrBEkIUopFYXzExCTPvhD54f5qgeRggg0k2EU6mabK7u8vy8jLpdJp8Pk8qlQIVitVsNoMsY9IebVWqsFQqUa/Xj3ibhlTyBF1wy/7x8XFCoRAbGxscHBwEFWrk+UTLNdX6Wlvlrd7e3ubOnTv8+Mc/5urVq3iex6VLl/i1X/s1Ll68GJRFRNMM9OuElUVANGavI4Siiy46IcKubbVBWy6RmP9arcY777zDyy+/zEsvvUThYB/P8w79YQywHYd6vUG77XuHO7bN9vY28/fmqVT8qmTFYjGIQnCVxQtl4ZFnEMuSo/wnZMlH/ED29/e5f/8+5XI5sERVq1XK5TLVqp9/Wnic/FaEtkCOy7miqAgd84QIaR4gqD3NiuCqyZHwT+FxH5SfhP7wD//wjzp3PvIwAMNRCbzDhylDPY+2VePm7WvM3r1PKpXj4sVnmJ4+h+PK+SFMU4VgeeC64Ln+INRnprKhDUr5LPhpnfGwDWYRyrLp+wFu377N/Pw8n/zkJxkdHSWswgoajQabm5u89tprzM/PUy6X6evrY3V1lddee43vfOc7tFotRkdHj8Smu5oHqafNOD3Po9lsAhzxtpbBLr8VDWN5eZnbt2+ztLREb28vZ8+eZWZmhpMnT5LJZIJ3kPcQ4hGznzyDoTQFOS7Pg2ZNeZj6q4tfPAxDTfBd32taxoYHuCr95K1bt1jf2KDVanHm9BnS6XQwOWxbbWrVKoVCgXarRdtqs7+3z+uvv86V16+QyWSIRmMkk8nAyTKZTAbLNDIu6/U6tVotoJ1SqUSpVAoEbaPR4OrVq7z99tvB0lM4HCadTgcZAPv6+jBU6KRMrFvKD8NVmnmlUjki/EVA+23x4TTGRxH6u3pqqQ+lTOg8DbVUJ20m57wfPFFCGgNct829hbssLa0TCSe5OPM00zPncFwbcDDNMKbpxyy6LrRbTRYW7nH9+nVWV1cDzfD73/8+rVaLoaGhgNkLkxdGbiiHo1qtxsbGBuvr66ytrQVZrarVahCS8X477OcBsRroxGdZFktLS+zv7/P000+TzWZpt9usrq7y7rvvcuvWLVzXDdaow+EwllrjvX79OtVqlVAoxODgILFYLLiXqzRaXVjKftd12d3dJRqNBvWHUZr7xsYGy8vLrK2t4SkNvKenh/HxcUZGRhgYGAhSeOrMQ4hKF8z6fkHn+WhM6FGFpxVCMDuyShkd6STpWIf8ae+ta1HyO30fWuGJznZ9lOHhm9sM82gtZcdxqNXq7OzuMjs7i+s45PN5IqqWcSaTodFssrS0zPz8HK1mi2q1SqlUotlqcvPGTebm5oNUtM1mk7t3/ZzP4XCYd955B8dxyGQylMtlFhYWWFhYIJFIUCgU2NjYCCbPKysruK7L3NwcCwsL9PX1kclkiMVivlm9UKBardLX18fKygrvvvsuzWaTQqHA9vY21WqVsHIM/eEPf8j6+jr1ep1yuczGxgY7OzvBEtKTJqQ5RlDr/Fwf6zo96Lzup+GJEtKGYWCYDmsb91lf3abV9njq/CWmZ57C9RxM08M0wxiGiQc4tkerWeeNN37ESy+9xJ07d2gpj+FvfOMbJJNJLl++HGh5aGuYQrCNRoO9vT1u3brF3Nwc9+/fZ2lpie3tbWq1Gj09PUHRiSOv0DHQOxnexwGZlZfLZQqFApZWYanRaLC/v4/jOJw6dYpYLEapVOK1117jtddeY3FxkV/5lV9heHgYV4VpDQ4OcuLECW7evMnS0hK7u7t84hOfoKenJxi8Yj6T2T2aAG2329y8eTNwKJMZfKlU4u7du8zNzbG7u8vJkyc5d+4c58+fp7e3l3jcz42rE4PebjrhdOK4Y7Kvc/+jBpnpS7u4mnMgaqZvK8c7OtZaZTzLdWRDG5PyXbQu/dpo15f+eNTbE/XOpmkSDh3VotuWxf7+Hmurq6ytrTE8MsKpkydZXFggmUoyPDTMzs4271y/zo0bN8hms75Zu1QikYizvLzMzs42lz7xCVLJFFtbW3zzm9/EVOU9v/WtbxGNRpmYmGBjY4Nr165x584dxsbGODg4CEIY5+fng+vv7OxQKBSCut6xWIzFxUUWFhbY3d1lcHCQa9eu8YMf/IBcLsfBwQGrq6vs7u7S09NDOBzm61//enBtKVKxtLTEU089RSaTeWxo5YNC3vlBAhrNr+WDKmXv/8zHAWqtOZlIkk6nKRWL7O3tUqlUMVU8tOcdahfhsEEqleG5557jy1/+MsVikUKhwPj4OH/0R3/Eb//2b5NKpXAch3q9TqPRCDpCtJaaqqZk2zbnzp3jK1/5Cr/1W7/FZz7zGfL5PHt7e+zv7wfZsRxlVheGp0Nnjh/X1m63efPNN/nGN77Bm2++ydraGuVymb29PUKhEAMDA0QiESqVCnfv3uXf/bt/h2EY/N7v/R7T09Nsbm7y/e9/n2q1iqcY2MDAAAA7Ozs0Gg0ctWbdarUwlcd3q9UK2sBT3qqxWIzNzU3K5TK2bTM3N8dLL73E3/zN3xAKhXjuuef4jd/4Dc6cORMwiC4eDEOlwjWUhccf74fe+KFQKDhuqOUAyVRVr9cD64ZlWTSbzWDMu5r1SD5LqKP0s6eSaMj132ucP0owhKno+wyIhMPs7u5y//59RkZHuHDhAiOjo8zOzbG5sYnjOGxtbmGGTKbOTXHx4kWef/55fumXfokzZ87S399PLpfj9KlTgYlb+iiTyZBIJHBdN0jLm8lk+PSnP82pU6eYmvKvNzU1xcDAAIlEgnQ6TU9PD319fUxNTTE+Ph5k9hNL4NzcHJZlceHCBZ599ll++Zd/mZmZGe7du8fKygoAPT09nD59mqeffpqZmRlyuRxtLX+APg4eh/59GPBkCWk1iNLpND3ZHKVSiYODIo2Gv/4J4DgunucTmmlCJGIyPDzM1NQUPT09JBIJ8vk8ly5dYnR0FLQZkqmSYIhjBUChUGBzc5PR0VFOnjzJ2NgYk5OTTExMkE6nuXHjBtevX2d+fp6FhYWg3qhsd+7cCWJ8b968ya1bt44c/yg3ufabb77Jt7/9bf79v//3fPOb3+Q//If/wJUrVygUCmSzWUzTZG1tjZs3b2IYBqdOnQo0ZFc5cvX29pJMJqnX62xubhIOh5mYmAgcXaQvQlrcpRC3wFVrbaurq8zOzlIqlUgmk0xMTHDixAkmJycZHR0lk8kQ1sK6ujge0t6e8iZGjd12u83s7CzXlVZ37949isViMOnRGa9MvGTMo2pui9Wlk0Ebxyw12JrH8aMOf3Lrt4vjSu5ucFyH9Y11bt++Tb1ep3hwwOrqCttbW+zt73NwcECpXMLAIJfN0dvbS39/PwP9/fQoISxr0TKxaahyqdlslvHxcaLRKHt7e2xsbJBIJDh79iyhUIhiscjGxgb7+/vs7+9TqVSCvjD0XBFa1EVb5eE3DIOBgQH6+/sZHBykt7eXWq1GuVymrRIE9fb2Mjk5ydjYGLFYLHA6kwm2vnXx4fHECWkMg0w6TW8+R6VSoVz2nSv8ajaHzmACz/MTEWQyGcbHx+nt7T3C6CxV6i0ejxOPx7G1RBooIb29vc3Zs2cZGRkJBq44bNy6dYu3336b27dvMzs7y61bt7h27RpXr17l+vXrvPPOO1y7do23336bN998k6tXr35s27Vr17h+/To3b97k+vXrfPOb3+TrX/86f/EXf8EPfvADdnZ2goxiq6urLCwscPHiRS5cuEA6nabZbBKJRIKJSDweZ29vj/n5edLpNJ/5zGeOaLzCKEzTDBzKDG1Nz1Ke4OvrPrOLxWI888wz/Pqv/3owaRLm43U9sd839LaybZtSqcQ777zDlStX+NGPfsStW7fY3d0NtGZh7NK2onHLGmRLqxsuE9WmyttuaNq7q4Uxoq37P6rwpPiO67enbVk4jo3tODQaTTY2NlhcXKRULLGyssLs3Vk8oFatsr6xQbNxaD2TvrAsK0hy4uFhWYfhnsJTMpkMZ86cIRqNsrm5yf7+PtFolKGhIcrlMnfu3OGNN95gbm6O1dVVtre3A2tJW0VciBJhaIl6DM1cqz+X+JC0VORGLBYjn88HE3ZxMNM1Z5kQdPHh8cQJaQNIZzKBJ6MM3FbTH2T6wHJdsCw/dGFra4tUKkWj0WBpaQlb5eGNqmLgMsjj8TiplB+HLWa+WCwWMCZhbLFYjL6+Ps6cOcP58+c5d+4cZ8+eZWpqivPnz3PhwgWmp6eD/xcvXuTSpUvMzMx8bNv09DTnz58nm80GpuezZ8/yxS9+kUuXLpFKpQLTcywWI51O46kyjwcHB7zxxhsUCgUGBgZwHIfFxUVu377N2NgYly9fZnp6mmg0GkyGhJBdlSRFmLz0g6zVnz9/ni996UtcunSJdDodPAOKGYigftSZ/s8LkUiEeDwOwM2bN/n2t79NKpXi2Wef5Vd/9Vc5ffp0oCH5E1i/TGJYefMLQ240GjSbzaAcaa1Ww9GqLNVUWVKZdKFyT8tET2fqjySUMJUx1263aTaaVCsVVldXMQ2T8+fP8ysvvMCXv/xlvvaffY3/4nd+h1wuz413b2CYJvuFAjdv3mRza5OlpSXm5+dpqnjlZqNJpVLBVoVm8vk84XAY27bJZrMUi0Vu374d9I9t2xwcHFAsFgF46qmnOHHiRFBiVby4LRU6hbJqhMNhcrkcJ06cAGBpaYn19XUWFhZYWloKKtZFIpHAd6alwlBDoRDJZDKgY+lnQwn8Lj1+eDxRjmMY4HkWttukVGryxo/eor9/lDNnT9I/2Ec8HiEUCmMYvnd3pVLj9dd/yNaWv4bkui77+/tsbm7S19dHPB4nFovhKO9kMbnqhNtSoQrlchlHVZ0Rr8v19XXC4TAnT55kcnKSXC5HKpUinU7T29tLLpejp6cn2HK5XLBls9mPfOvp6SGTyVAqlXBdl+eee44vfvGLPPfcc2Sz2UDbHRoaOqIVCcNvq4pX0WiUdrtNuVwG4NSpU0xOTpJOpzGU2a5UKlGpVNhXpj+duMWc2mg0uHv3LqdOneLy5csBc/c874ijmTyLCPkuY3gwdKFoqKxst2/fBmBsbIzTp08HseJt5Z9Qr9dJpVK4rsvCwgK3bt0iEolw7949rl27RrVa5f79+9y7d49CocD+/j47OztBatdkMhksaUifyf0f6f7SvOUN0wxqQrueS/HgAMu26e/r4/LlywwODZHJ9JBMpbCsNs1mg9OnTxMJh7Edh0gkSrVWpd22yOdyNBoNAFKppB9tAuzt7XH+/HmmpqaIRCIUi0XK5TITExOcOXMm8P0oFovU63WGhoawLIt4PB44e0ajURyVHyAcDtNoNAJL4alTp7Asi0qlQjgcplKp4DhOkAwomUyyv7/P2NgY4+PjeJ5HoVDA8zwuXrwY0Dda33bx4fHkCWnamKZLq+nw9lvvYpoxcvkezp07QyaVxDTDuJ6fjm9vd4+//Mv/h3q9xsjICL29vWxsbHDv3j16e3tJpVIkEolgZtrWEp2ItimC5dq1azSbTaLRKAcHB8zNzbG8vMzU1BSnTp1iYGAgEPqJRCJY/04kEoF2LjPhpEq1+XFs8k5nzpzhN3/zN3n++ecZHx8nFosF5v3h4WGy2SzpdNrXHpR5/9y5c2SzWWzbZnd3l1gsxunTp3n22WeJRCLs7OwEWvfW1lYQliZhVqZa54wrZ6Vyuczy8nKwno/SxPT1NE+Zbm2VVEFM5l38JKStXG1teWtrK+iDdDrN4OBgMO7K5TL/9t/+WxqNBmNjY5imyQ9/+ENeeeUVhoaGeOutt3j55ZexLIv5+Xlu3rwZJNzY39/n6tWruK7LwMDAEb8BR4V5Pep95XkubauNh18POhwOEY1EMQyTZqNBOp1hZHSEgf6B4F2TySSGsqidf+opBgb6SafS7O7t4dgOGZUoqLevl4GBQXZ3dwHfjyapyrmOj4/T09ODZVmYpsnMzAwTExNks1ny+TyWCn20LCtw9BKnsd7eXtbX13Fdl6SKvRansomJiWBpolqtAtDb28ulS5cYGBgIJs/CC/028Ojp6eHkyZOBwiKWMKHRLj4cnqhSlZ4BLjU86qyt7vMn//Jfcf/+NsMj/fyP/9N/x4mJERxM2i0XiGC3myzdXyAS8cMe4vE4hUKBSqVCX19foFlfvXqVarWKqao6maZJOp3mU5/6VBDfK6UYNzY2qNfr9Pf3MzExwdjYGOl0OjAjecrhwnxAcXDjY17r8ZSZstlskkwmcdW6pOu6vPPOO6ysrPCrv/qr9Pf3Y5pmYHoOh8P09PTgqKIaou2GVdIGyQi2sLCApWKwl5eXSSQSDA0NMT4+zuTkJCMjI4RCocAzdnZ2lunpaT71qU8deUZU9iPHcYiq4gPSbh9n+zzqEAEtbVUqlVhdXeXKlStBPPvv/M7v8Mwzz2DbNv/iX/wLZmZm+OpXv0pfXx9/9Vd/xauvvsrXvvY1ZmdnmZ+f5/d///cBuHfvHm+//TbPPvssTz/9NN///vdJqjSvMzMzwfKIOCB1ataPGjw8PNehbVm4jkMsHidkmjiuS71Ww/MgFDKJxmKgtflBsUi1WlUWKT/bWK1WIxIJk0r6k3CAVrtNrVonFosRiUSoVqskk35kiud5FIvFgBcllbUCoFqtUqvVAlowtMQ9nvLUj0QixGJ+wQ95rkQiQaPhP4ulfG2iKmd9RHnqVyoVotFoYFmp1+vYtk2PCqsUZSWqEhB18eHxRGnShgGGYWMaLo5jsLdXYnFxjY3NVZ7/zHPkejOEw1Fs28M0Q0SjYfL5HLlclmQySSKRIKtqJ2cyGSzLYm9vj5s3bwZxxSKQWq0Wp0+fJpvNkkgk/Bm0IhhxQpMwCCEuryNDjf/M/m/07eOEYRhEIpFgHUsQi8XY2tpid3eXEydOkE6nA0tBOp0mnU4TUikREyrkI6GKaVjKk7itvIjr9TohFS8o5vHBwcGgprNpmuzs7LC9vU0qlQrKWLodGd5EWMtE4OfRPo8LpP2ECUejUZpapioRDG+88QZjY2NcunSJZDLJ3NwcS0tLTE1NUSgUaDQavPDCC0EoztLSEmfOnOHChQtsb2/jKZ+MkZERIqq6mGhaj7ombYCfU8Fz8TjMOGYYBqFwmGjMH9vB+WrdNhQKkUwkiMVjRMIRYtEoSY1mTNMkFA4Ri/nLDtIXqVQquJ60n1jWUF7apvJ3kXPj8TiJRCKgM6FXoe9wOExUeXvLNcVyJ1Y14U9AYO2T94wo/wZda/Y+YL3kLt4bj+409meBAQYmBgbRWIzz58+TSqXY2NhkZWWZUqkEnqrhakIoBPG4nyFIiMNUJRZlZioaZD6fp7e3NxA0MlMVwvU8j5GREZ577jleeOEFnnrqqUDrFs1GZrUcs3b484I8h2zCHOLxOJlMhmw2i6d5orodNZdR3r9yLYHZYd6Mx+NcvnyZkZERUPGXYlJ3HIeGygM+MTFBf3//kefShbMwDGnDLt4bhrYO7Kplglgsxic/+Un+3t/7e3z1q19ldnaWmzdvBiE5EbW8oI8L3YdAxkFYpZkUWhHmbSkvfbmfo2Uje9Th4WGGQkTCEUBNHAOLjqInz8XQEvSEQyFSKu89qn1jsRiRqO9nYTs2ruNicGgyFgEsfSfCWIS6o0VDoCwmbeVxLxYLnU7kPOE/0idCp8Lj5J7Sd0Lr+u/lGQ1l4pbx0sVHg8dYSBvq9ToFnIEDmEaIsbEx+vvzWFabO7fvsLa6hm3bhEImoZCveaMJG1NpuKIN7O/vUygUuHTpEpOTk8EdRKAJAaDWoEQzFUaFphXKABcCcFQIhAilTiL8OCD3QQlaeX5LrUVns1kGBweDjGkhpQmjTM9C1NI+QvSJRIJKpcLu7i7nzp1jfHycRCIRxJlvbm4GJtCwcmYplUqBeS+qzNk6w5K2ocNx7ONsn8cJnhZ+tbW1FTiHTUxMBOvSURXWYyrLRq1WCzy6LeWH4bpuMFFyHIe4ciJsqUQ1jlr+sJWDVSzmx/6iKkRJHz6K8DxwbCcQypbKnmfbts99DL/kZDikLD1aqVbHcXBsB1u1o2EamCrToed6eD+xhneYzVD4kK3VOI9E/AkrCA17xOO+Bu7TtR1stvy3ber1Ok5HoRnxrWlrsc+icQudifBGy0wn++VaXVr8aPBom7tF/hodW3DM8E3dhpqLBPLaA8JEIwn29grs722zubVBLBplaGiEdCpNJBw6cjmUQPW0Wais24yMjJDJZMhkMvT39weJCfr7+4+YigxNIzY182znpp9vqFmzPlHQz/k44CptSYgQ7d1t22ZrayuwIPiMwf9N5zt5mnXAUR7wfX19gaf60NBQwABOnz5NMpmk1WqxuLhIrVYjl8sxMTERmMCPa5uftq+Lo/C0uHLHcdjf32dtbY2lpSVWVlbY3d3FVtnxJicncZRVY3t7G8dx2NraotVqcerUqUDIPv3000QiEZrNJuVymaGhIfr7+33LFARLFro1SvpIt648evBwXT/kzDR9AWsYfhlK01TcQ6I98KW6Lrh0+gjp7SARDsYh3es0pfehYRiEQkJ34Dg24GGaBmbIxH8MT/E8DwxQ1TAD6AK689rybvJsIrTlmdDeQ84P3qOD53Xxs+HRFtIoKXrcFnxQ2rQaKx5gEiIcihKLxjBNaLdb/O3LL9NqtRgYGGBkZJh4PIGpBljnwBPhlUql6O/vD/6PjY3R19cXZOx5kNlXNOYHQQhDJ47387sPC7mvozRhYaD6vV3XZXt7G1eZ0TKZDKGOmtK6Ri0z7GQySV9fH4lEgt7eXoaGhojFYmRV9qR8Po+rHPHeffddenp6mJ6epkflDO58Rr1PjmuvLn4S0kcyHj0VQrO2tsa7777L/Pw8xWKR6elppqenGR0dJZ1Os7GxwZ07dwJTpk8jvoNfUnkciwZtWRYDAwOBl3EymSSXy9HX1xeMiZBWs/vR7i8/y5heQ1osUIYS0J6n0hcqQeZIgRFtmctTa7jSFv5nJaC9o7TvKrOz3Cekyl0a/pQBWyWfCYVNXNfXqE0DxctcXM/1zzd8TT8ciRAyD9MYC/120pbRYSrXn1meS86X/4923z48eLS9uz8gPC38w1SCdn19nbfffps/+7M/C4o1/LN/9s+4ePEi2Wy28xIBg5NZZ+cmZj0ZpHIvXYg87INX3k2YqpjDAOr1Ovfv32dnZwfXdZlR+XujP6UCjry3tBNq4iGMy3Ectre32djYOBL7GdHiobv4cHC1DGIyHpsqB7eYPU3TDJwko9Eotm1TKBQolUrkcjlfKKglHfEfyOfzGKrEYaVSCZyOxPM3FAqRTqeDZxATrEz0HjRmHnZ4novt+IItdMwYlbFuqHV723GIKTrxIBCoctwMhQgr4WvbNo7jV5UTgS10yRFLHIE2b5iG/1m1c61WJxzxQxpN06RWr1Gv1QCPRCJFKpnCMMN47qElTH9m0ZpluQnN5C7PIO8ZTD66QvojxxMnpGW2GFKOMLVajbW1NV588UVee+01KpUKf/AHf8DTTz8dpADVB5sQSSfRyH8dMlB14fWwD9xORuAq07e0g+M4lEqlI/HN/f39DA0N0dPTQ0hp1XQQqlxHv6arTGTtdpu1tTVKpRKWZdHb28vg4CC5XO4RN4c+XPCUf4HRUa1HjnWOYRkLwpgDLbGjP4yOlJ9h5VSpT1hlXHhKA5PrdtLXowRfONm+adk08fB8DVqO+yfhqlClg+IBy0vLvv9FyDdnT0xMBIlBTDVx8jzPzwEOhEP+hMbrqChmHDF9g2n6AtvvQ19oVqtVDMMgHPEn2Lu72+zu7hEOhxkeHmZoaATPM3DsQyfRzj6Sz/6kwQ931IW5Dnk+edZHtV8fNjz65u4PCH2wW5ZFNBoN1kglPvj555+nr6+PqKr1/H4Gm6GZhfXtcMb78A9aTzPJ6RYHvQ0MwwjCOxyV+lNiMmXGLW0hnz3NEc5QDL3dblOpVIIqYfPz87RaLXp7ezl9+jTpdPqRZ+IPG/S+EUbLMRNOOY7mdyHryXKe3r86OsdK6JhMfJ1j5NGGLyQNw8BzDyencOjP4jgOtXqd1ZVV/uNf/RV379xha2uL7a1t0uk0w8PDRDReY9k2pgqHkt87mjVL2tLvN3+/h69Ru54LeLiOS7VWo9nyEw05ylK1ubFJ22qRUREpju1i24f51OXaOt27rhtEW8hSljyXfn7neHj0+/bhwBOlSdMhiOr1OlEVO9hoNFhYWGB7e5uZmZkgQ1IsFgsGpfz+uP+CR53xeErbEo1IJ8pGo0G73Q6SKdTr9aAKz87ODrZtMzw8zMmTJ4M1ZxHQ0iauWlOrVCrMzs6yvb2NZVlBWsNcLkcmkwnOlfjNLj4aeNrSjDBZXYDqE0tUH8gxTyUicZQXt+yT8SG0IEJFJqpynhzvZOaPLsRhCjAMXG29Wd5O2mxvf5/5uTn+04svcnFmhhdeeAGAmIo7xvOIqyI9bcvCc11QIViNhi9o0+k0luVHWsRUis9wOIwZMqjXajSaDSLhMBgGtVqV69eu02w1yeWyXL58GcexKZfLhEIm+XwvPT052i2LdvuwiEcikSClEpUYSkAXi0XaqiBHTMVgy3IHD/CX0fu6iw+HJ05IowaQrapViSBGFQhoqkxbIpw6za0y+Do/C3SBfhw6f/MwDuJOTVreqd1uY6lcwMLkbdtmb2+PnZ0dyuUynjKPxVSMuE68jgrHkTYtFAoYKrnL5OQk2Ww2YP5o1omHsY0eVYiwFI3Y0yxLujYkx2Sf9LerLVvowlm+G2pJRLeCyPXlnroAf7ShYqDVN9d1wTCOOJy6nofVbrO1vcXc3Dw/ePVVnnv+eX79134NM2Ri2w4HBwe8+eZb9OZznD5zhlw2y8rKChsbm5w5c4bNTT916+DgIK6yQiVVyda+vl6Wl5fZ29ulWqsSi0bp6cngQZAJsSeT4fnnn8P1HMrlCul0mv7+PiKRODdu3CIc8otv7O7uMjQ0xOTkJNFolMXFRZaXl+nv7w9S/w4MDDA5Ocnw8PBPaNI67+u0uHTxs+OJM3ejMX+dAaHNElFmO4lrfhCEAXVuD4LcRxfU73X+LwqmNjOW5zO0RAXCaB3HIaGq8wwPD9Pf3x+sL9+7d4/19XV2dnYCbXt1dZWVlRWKxSKO45DJZDh37hwXL14MTOiGYvLmMROkLj48dMEs/Szas8BQGlSnkBbTd1jLImcopye0CapcV4f0o6uqaBmaOfdRhuf5YU2G+iw0IzRuqMlpuVJhd3eHtfV1+vv7GBoawnFcQuEQ5XKZv/i/v0GpVKK/v5++vj7evnqVH7z6AwYGBrh9+zZXrlwJJsRbW1usrKyQTqfJZDK88sorzM/Ps7u7S+GgoCZJvnm7XCrRbDVJJlOsb6yxuHifdruN53kUi2VeevElisUSjuNw69atIBtgOBzmlVde4Vvf+hZ9fX1Bmt5Wq0U2m2VoaOgn+IP+X5/MdWn4w+GJEtKe5gTTOXh0AhNTj864OiHndm7HoVM4BwT8Hr/5RUHaQWbs0l76s4oQFc9reZ+wip0eHx/n7NmznDlzhsnJSSYnJzl16hRnz57lwoULTE1NceLECSYmJoKkL3p/6Fp8Fx89Osesp0yylkrGoWvKctzTUj3K+DDVREq3mMh4QfWjCHt9nIvH9+MhpLXQI41GRKuW79VqlY31db73yiuUyxV/ee3ePVC86Ec/+hF9fX2cP3+eXD7P4sICi4tLTEyMs7e3R6PR4Ctf+QrT09Mkk0muXr1KLpejt7eP733ve4yOjfFrX/oiMxdnOHvmDP0D/diWTSKZZGhokKefuYzruoH1qlqtUqvWGB+f4MKF6aBwR7VaZWlpibGxMfb392m323z5y1/m7NmzZDIZlpeXyWaznDhx4ghPEMh34bW6Ja2Lnw1PFBfsZEy6wBaB4GmmO/kuQki/zvuF/lv9/scN8IcB+jMJg9W/d5q4BPJd4qFHR0eD/OSjo6OMjY0FJe6Gh4cZGBgIzNteR+3hTs2ui48ODxp/ptJ+ReCijX3ZOmkEJYh1mtKve9x90JJnPOrw/AygAfR3dRwHTyb7IWWxCPtx5X29vYwMD5PP50kkEn57K+czmRi5rovrHdbmBsjlcoyMjNDf30+9XqfZbOJ5LsXiAaZhMDw8wujoKLl8jlg0RizuZ3dLp9Pksn6BIHFnq1YrHBSL9Pb2MjLi/25iYgLP81hfXw+WAntU9SyhV8kEKJY0GQvy3p38rosPj0efUj4g9AGlC2l9xidMRB9w+uf3Qidj0yFELJOAh3EQy3MbmhORMFQR0sedq38XLSuiku8nVZEACd8QjQzNRCr+AJ7KQPY4MPFHBYaWPzoejwfLDq6WK71zLIdUiI6t0r/KcRnjMs517Vu/1+OgRaNP4g/zJQU0IGFUpmESDoVIxBOMjIxw8eJFPvvZz/Lp555jfGKCaCxGLBbHME3abd9p07IsbMsOHCcdxwmctyR+3Q1CGC1abb9uveM4NJttvzZ1q40b0KsfQ23bVrCM12751pOwKqphqKULcQ4UHiD96apQMklFKn0vx/X2kP7v4sPjiW1FYRamituVMAWBDDadOXUyqp8GnWHJIH6Y4Wneu9I+IkzRtGVhsBI7KcxCGLKpkjG02+0jJnP9OoYqa+eo0JLe3l6SqjSmMKAuPnrImBYB3LnJcelL6V+d4coEM6wKMcjvdEat/+/EwzpB/eD4ycmLwOtQsw3Tz90t9BCNRsmk08RjMWLRKJMnJolFo2xvb7G2tsrm5qaqrHeYXaxSqVCtVrEsX9A6jkOj4Tu62pbN9s62n3imeECtWsMMhTBM088R7ljUanVq9RrJZJL+/gHSmTRzc/OsrKxQKpW4efMmjuNw/vx5hoaGiEajtFotGo0GIVUURPpN6FR4pqE5F0qbPD79/IvFE7Um3YnOASRCSPbr/2U77nc63s85DzO8Dk/d4zZh2Pr3zjYSGB2zcf0c/V7CiOR6XQL/eCBtelzb6vv0fpL+0M/p7EvpN/33D/p83L0fZRiGXxzj6M5DK5Hrujiug2XZlIpFJiYmmDgx4Z9mGriuR7PVxLYsarUaeHBQLBIyQ1y4cCFwzLt48SLpdJpWq8Xm5qZaThrDNH0aK5aKFAoHGIafstgMmTSbLRqNOqbpr0Obpsng4CADA/3kcnlKpTKu61GtVllbWyObzTI1NUV/fz+VSgXP8zh37hxRVcp0f3+fwcHBoPSoaPr6RK1zbHTx4fBEC2k0pqELCX3/cdtPw/s552GE3g76vs42kc8PEqZyrNPUKcdk6/zte12zi48Oeh88aJPz9P44rk86+7Hz9/pvOr8/6jDUOrJh6nnGDukIwFFLRCEzRCwWxTTMIDuf4zq+KTwcIqaEYLFYJBqNkcmkGR+fYGxsjHA4TCaT4cKFC8Tj8UCDHR0dZWTEX0uu1+vcX1ykUi6Tz+cYn5ggEU/QareoVCo0my1SqSTj42NkMllGRkYYGRml1WxRrdbY398H4MyZMzz11FOBwM3n84yMjGCozIAhVSQnlUqRTqcJq0Q1tkqG0qXfjx5PZJx0F1100cWHx0+uR+twPQ/XcXDUUoJt2zQbDeLxeJAwxDRNMAwslYGv3vBLhhq+JxnxWBzL8pd/MpkMtm3TaDRoNBqkUikSiTjNZpNGw3ckw/Do6cmQTqVxHIdypUytViOV8ku+hkK+UI3FIoRCEWrVBo2Gv55tqJwFku2vXq/TbrfJZrNYlhWUKE0kEiQSicDkri9biT+JoTkSdvHh0BXSXXTRRRc/Ezy1HQ9XW/v3lDlY99vwPK1qtOZsFlZryYf6uW9OtlQmQM/zNH8RD8u2ApO35/lVuQzTwPPAtn1nMt9p89CpDQxMI4RhhHBd3xtdtyYGz63uJf4lkuUspGofOFq63+MsZ118eHSFdBdddNHFzwRhncezUNfzAuF8WDBDCTHDF8EiNEWrNk0zMIObqoQk+N7d9XodwzCIRqNEo1H1O99xyy/y4QtH1/MnBYZp+gLbMPBQAlVVyfIfxyQcjoDnTxhEwIrWbyonUU8lsnFVml6ZYIgQFwHdFc4fD7pCuosuuujiZ8KDhbSneXh72uanEVU+G+EQBgau52Jb/pouKmoiHIkQCUeUcDwaFqlr4q7nYhqSylcVycA/NxKJYBoGHh6W1VYC3ffK95/NIByO4ji+V3Y0GsXT0r/KvST0y9Qq2KHC8HTtWyDP2sVHg66Q7qKLLrr4mXC8kPbwVVXdlO3v96tTGcocbRpq7RYPx1bhnwa4ji8gTTOEZVl43mE4k/w39NSjqqa049j+JEB5lsv6s+tKWJR/vm8mB88zMDvqSfv7j+Y/EK06pELyHBV2pQtptJz/8pxyny4+HLpCuosuuujiZ8JRIS1CUz7r2qR8PhSsvgbtO4gdlfP6ubbtYJqHyX9EkxXzsi9QVZU5g8P61oaJpwSs6zpEo5Fgjduvew1g4nlGkC7D6UjHK2vOInR1M7dunpfnlUQohtLiJWlKFx8OT2wyky666KKLjwqe0px9E/ShxBWtt/O753nYlo1lWzi2r4FaluWXqQwSzvibLvzFy1oS/jiOTbXqp9Q1lHbrC2gP27Kw2m0sy3c2Qwlo27Z9j3PPo9U6zFQm+dvFnC3Pqwtu+R4+pviNqbIMdjMGfrTotmQXXXTRxYeAbtb2ZB366CkBgiPKJG2aypNbCUJx/vIjsAxCoUOtFiWEdQFpGL7A9IWiccQj3FDCNBIJa/sPTeeGoYS6+i5e24fXPiqgBfpxHSK8dRN4Fx8eXXN3F1100cXPhEPtFKVB+xqr54tL5V195BeaubsT/nX0PVIIyN+pC1BXpeL1TeVaJS5fn9cvoiD75b4eHiZGYPI+/pnQnhl1znHvoJ8jeND1uvhg6ArpLn5O6BxmXQLu4lHHA4S0h5+N7BghffgrTVwGwt0/Jo5ZeBK/7OdIF6Gnn28Y/oV00et5qha4SlUqz2eYvq6NyoTmuh7hUBRbmdulAI7cQ/6LFu9r30ez0unn6CFZsulr1l38bOgK6ScEOmELhJBkVi7EJASnE5kQoqfFU+KB6yoHGQMsy1aepf7vHMfGcR0i4bBKzqA9i9wfxWXwr+UzBGVmM1SsqaYpdDKI4Hrq3bpmti5+vjgUZvp/X3D+5Fg9Djpdevie2v4XnzbFi/q48xFBHUCFe6kwLLXL/6OeiSCWGsxQCNfx6a5znfkn3knTjjvfS3iDCGk5p0uPHx5dIf0EQIgsmKF3EJDuKGKqWEjJxauvL4mzSpD6DxPH8YvboypoGQaYIRPD8Gg0m9hWm3QmfSRm03O9IKzET53oYtu+cDYM3zM1FApjmuC4jpaw4WgYCpqA1tfsOhlIF108Ofig7LxLKw87utOcxxieVjrO6KgP3TnbbbfbVKtVXBVaEQr5MZqtVutI8nzgsKas5xIK+aXwms0WkWiUWDwOwO7uLqsry6yvr6lkCP7s3nFsfzUs5DuuNOp1dnZ2mJ+fo1AoEI1ECUfCfuyn4jfyPCGVilDq2ermNTomIV108WRCLFPvd+viYUdXSD/GMDrMw/Jf15xd16XRaDA/P89bb73FwcFBEI6xuLjItWvXeOedd2g0GgDUajWuXbvG/Pw8lUoF1/XN3+FwCNdxsC0bz3NJJJK02m22d3awrDa2bamSe4fP0LYsqrUa2zs7zM/fY3d3F9f1kzEYft0BTNOkWq2ys7MT5C0WAS2Q/bpJsIsuuujicUBXSD/m6DRp66ZhlPbZbDaZn5/nypUrbG9vq6o6DW7dusVrr73G66+/rgSyS6VS4cqVK9y+fZtyuYJl+2kLbcehWqtRq9ewLJuengyRcJhmo4nr+MUBGo0G9bpfwadeb1CpVCiXy5SKRdbX19ne3qZSrVCvNbEtF8+DdrvNysoKN27cYH9/n2azGZjjW60WtVqNer2ObdtdU3cXXXTx2OGJryf9JEBP1yebbvJ2XZfZ2Vnu37/P5OQkmUyGRqPB97//fe7evUu1WuXpp5+mp6eHYrHIiy++SC6XY3p6BtM02dvdY3V1lcL+PpZlEQ77wtJxbOLxOENDgziuR6Gwx927dykUCjQaDba2trAtG9MMsbm5hacS+RdLJTAMTNNgeXmZ7373O3z3u98FIBqNBqX01tfXWVhYoNlsEgqFVCm+rqDuoosuHh90NeknALr23CmgDcMgFosxMDDA0NAQhUKB3d1d6vU6lmURi8VIJpOUy2WKxSKtVotcLkdfXx/hUIg7d+4yNz/Pzs4O2zs73F+6z/z8HKVSkbX1de7evcPu3i63bt3g9dev4Dg2iwsLfPc732F/bx/bsWk2myws3GN7a4tarc79+/e5fesW9+bncZSzWqvVwlBe5oVCge9+97vMz89jmiblcplqtRqsv3fRRRddPC7oCuknDKJJ64I7Go0yOjrKqVOn2NnZYWtri2azSTKZZGxsjBMnTlAsFtnY2KBWq3Hy5EnGxsZwPZdrV6+yqLTZVqvJ6soK7757g0LhgMWFBd56+yqbm5vcvHmLq2+/TS6Xp1Qu8/bbb/t1cA2TRqPB8vIytXqdVDJJqVhiYWGBubk5YvE4+Xyevr4+RkZGSKfTHBwc8PLLL3P//n0ymQyodWm/GEFXSHfRRRePD7pC+gmCOFyJgJaE+K7rkslkyGazbGxssLm5SaPRoLe3l1OnTjExMUGhUODevXusrq4yOjpKT08P5XKZtbU1arUaqVSK4aFhWq0W9+7do1QqYtlWMClIpVL0DwwwODjAzPQ0zz33PP19fURjMRKJBGfPTjF94QLnzp1j6twUmUyGZqtFQnmL27bN2NgYvb29wTp7qVSiWCwyOTlJPp8PvL676KKLLh4XdIX0EwTd5G1otWkNwyCdTpPP53Fdl62tLVZXV8nlcoyNjZHP59nd3WVlZYXd3V1yuRzJZJJGo8F+oUCr1SYRT5BIJDgxOcn09LQfS22YxOMxYtEY9XqNleVlrl97h63tLWKxKLlcnp5Mxhfg/f1kczlS6TT5XJ5QKEyjUSccCZNI+NcW0/vQ0BBf/OIXOXfuHIVCgRdffJG7d+/+RDKGLrroootHHV0h/QRAhLKYuWWfHzoVBiAWi5HL5UilUmxtbXHz5k3S6TTDw8Ok02m2t7fZ2NigUqmQzWZJpVJ+ApNWC8/ziEQjhMImJycnefbZT5JMJg8nAuEwdbXWfOXK69y9c5darUYimSCRTBKJRIjH437CE9MgFo/hug6NRiNYM49Go7RaLRzHIZ/P87nPfY6nnnqKRqPBt771LW7evHkkdWIXXXTRxeOArpB+zOF5HqZpEo1Gg0xhYu52HAfbtmm324RCITKZDP39/ayurvLqq68GDmXxeJy1tTXfG9u2yefz9Pb2ksvlGRoaIpVK+oXqzTDVWo2d7R1MM0Sz2WRvdw/btkin0/T392PbDtVqjXKlTK1Wp1Qssl8o+GFUak3ZdVxa7Tb1Wj0IByuXy6ysrLC8vMzy8jKzs7M0m02Gh4eZmJggnU7TUhOGLrrooovHBd0QrCcAuiYtW+cxSQRi2zbRaJSRkRE++9nP0t/fH3hQj46OMjU1xfnz54lGoziOQzyeoCebxfNcHNsmEomQy2fJZnuwbZtIJExvby+lUgnDNPn0c59mZHSEeDxOrVYjFAqRy+bxPJeJiRMMDg5hWTa27ZDOpJiamsLz/DziqVQqeHapget5HqlUinPnzjE+Pk40Gu1q01100cVjg27u7i4CWJbFwcFBkLhkZGSERCKBZVksLy9j2zapVIqRkRE8z6PdsojG4qyurrGyvAyGx+joKKOjw3h4lEtFDg4KFEtFVldWqNfrfP7v/B0sy2JpaZm5uTkuzlzkmWeeZW9vn958H339fdRrDRXu1WR8YpxGo8bW1hb7+/vBujRaetK+vj6Gh4fJ5/Odr9RFF1108UijK6S7CCDxyH6ubUilUkG+7EqlAkA47Dty+evbYGDSaDRpNpuYpkE0FiUej4LK091oNNja3uTatavcvXOXbC6H49iAwfj4BNPTM5w9cxYwCYcjhMNhPBfq9QaW3aanJw34xTv0pCXgZyPztfl4YM7voosuunic0BXSXQTwVEEO8QIXz2/Zb6hEKHoyFL9cpV9S0t/n+cU0PAfTNPA8l0q14odvrayQSqexbRsDgxMnJhkeHqYnm8PwDDyV9N80/eparmsTCpmEQv795BnENC/m7lAoFKyzdzOOddFFF48TukK6iwAi6GSdWmKqRTg/UPjJCDLAcXwN2nVtQuEQkXAY8CiWDqhVawwMDmJZbdoti0xPD+FQGNcDq2XhemAY/iTAF7ZgtduYIYNIJNJx06OwLAvXdZWHeNcfsosuung8YMwtF7pCuosuuuiiiy4eQvz/o2MDzxNYfnsAAAAASUVORK5CYII=;" vertex="1" parent="1">
          <mxGeometry x="270" y="1120" width="440.73" height="210" as="geometry" />
        </mxCell>
        <mxCell id="RW19oWGCIhu28mRPmWR4-39" value="ActivationFunction1(sum(Xn * Wn) )" style="rounded=1;whiteSpace=wrap;html=1;absoluteArcSize=1;arcSize=14;strokeWidth=2;" vertex="1" parent="1">
          <mxGeometry x="40" y="1220" width="200" height="80" as="geometry" />
        </mxCell>
        <mxCell id="RW19oWGCIhu28mRPmWR4-40" value="ActivationFunction2(sum(Xn * Wn) )" style="rounded=1;whiteSpace=wrap;html=1;absoluteArcSize=1;arcSize=14;strokeWidth=2;" vertex="1" parent="1">
          <mxGeometry x="40" y="1320" width="200" height="80" as="geometry" />
        </mxCell>
        <mxCell id="RW19oWGCIhu28mRPmWR4-41" value="ActivationFunctionN(sum(Xn * Wn) )" style="rounded=1;whiteSpace=wrap;html=1;absoluteArcSize=1;arcSize=14;strokeWidth=2;" vertex="1" parent="1">
          <mxGeometry x="40" y="1410" width="200" height="80" as="geometry" />
        </mxCell>
        <mxCell id="RW19oWGCIhu28mRPmWR4-42" value="back propagation" style="strokeWidth=2;html=1;shape=mxgraph.flowchart.start_1;whiteSpace=wrap;" vertex="1" parent="1">
          <mxGeometry x="110" y="1560" width="100" height="60" as="geometry" />
        </mxCell>
        <mxCell id="RW19oWGCIhu28mRPmWR4-44" value="dL/dWnm" style="rounded=1;whiteSpace=wrap;html=1;absoluteArcSize=1;arcSize=14;strokeWidth=2;" vertex="1" parent="1">
          <mxGeometry x="115" y="1890" width="90" height="40" as="geometry" />
        </mxCell>
        <mxCell id="RW19oWGCIhu28mRPmWR4-45" value="loop ใน array 2 มิติของ weight" style="strokeWidth=2;html=1;shape=mxgraph.flowchart.decision;whiteSpace=wrap;" vertex="1" parent="1">
          <mxGeometry x="60" y="1640" width="200" height="100" as="geometry" />
        </mxCell>
        <mxCell id="RW19oWGCIhu28mRPmWR4-46" value="loop ใน ทุก ๆ row" style="strokeWidth=2;html=1;shape=mxgraph.flowchart.decision;whiteSpace=wrap;" vertex="1" parent="1">
          <mxGeometry x="60" y="1760" width="200" height="100" as="geometry" />
        </mxCell>
      </root>
    </mxGraphModel>
  </diagram>
</mxfile>
